# Blender v2.78 (sub 0) OBJ File: 'new_plan2.blend'
# www.blender.org
mtllib cone_bulb3.mtl
o Cone.002_Cone.003
v 25.436932 8.640505 -21.142639
v 25.530363 8.640505 -21.151842
v 25.620203 8.640505 -21.179094
v 25.703001 8.640505 -21.223351
v 25.775574 8.640505 -21.282909
v 25.835133 8.640505 -21.355482
v 25.879389 8.640505 -21.438280
v 25.906641 8.640505 -21.528120
v 25.915842 8.640505 -21.621552
v 25.436932 7.682682 -21.621552
v 25.906641 8.640505 -21.714983
v 25.879389 8.640505 -21.804823
v 25.835133 8.640505 -21.887621
v 25.775574 8.640505 -21.960194
v 25.703001 8.640505 -22.019753
v 25.620203 8.640505 -22.064009
v 25.530361 8.640505 -22.091261
v 25.436932 8.640505 -22.100464
v 25.343500 8.640505 -22.091261
v 25.253660 8.640505 -22.064009
v 25.170862 8.640505 -22.019753
v 25.098289 8.640505 -21.960194
v 25.038731 8.640505 -21.887621
v 24.994474 8.640505 -21.804823
v 24.967222 8.640505 -21.714981
v 24.958019 8.640505 -21.621552
v 24.967222 8.640505 -21.528120
v 24.994474 8.640505 -21.438280
v 25.038731 8.640505 -21.355482
v 25.098289 8.640505 -21.282909
v 25.170862 8.640505 -21.223351
v 25.253660 8.640505 -21.179094
v 25.343502 8.640505 -21.151842
vn 0.0000 0.5033 0.8641
vn 0.0000 -1.0000 0.0000
vn 0.1686 0.5033 0.8475
vn 0.3307 0.5033 0.7983
vn 0.4801 0.5033 0.7185
vn 0.6110 0.5033 0.6110
vn 0.7185 0.5033 0.4801
vn 0.7983 0.5033 0.3306
vn 0.8475 0.5033 0.1686
vn 0.8641 0.5033 0.0000
vn 0.8475 0.5033 -0.1686
vn 0.7983 0.5033 -0.3306
vn 0.7185 0.5033 -0.4801
vn 0.6110 0.5033 -0.6110
vn 0.4801 0.5033 -0.7185
vn 0.3307 0.5033 -0.7983
vn 0.1686 0.5033 -0.8475
vn 0.0000 0.5033 -0.8641
vn -0.1686 0.5033 -0.8475
vn -0.3307 0.5033 -0.7983
vn -0.4801 0.5033 -0.7185
vn -0.6110 0.5033 -0.6110
vn -0.7185 0.5033 -0.4801
vn -0.7983 0.5033 -0.3306
vn -0.8475 0.5033 -0.1686
vn -0.8641 0.5033 0.0000
vn -0.8475 0.5033 0.1686
vn -0.7983 0.5033 0.3306
vn -0.7185 0.5033 0.4801
vn -0.6110 0.5033 0.6110
vn -0.4801 0.5033 0.7185
vn -0.3307 0.5033 0.7983
vn -0.1686 0.5033 0.8475
usemtl cone_light
s 1
f 1//1 10//2 2//3
f 2//3 10//2 3//4
f 3//4 10//2 4//5
f 4//5 10//2 5//6
f 5//6 10//2 6//7
f 6//7 10//2 7//8
f 7//8 10//2 8//9
f 8//9 10//2 9//10
f 9//10 10//2 11//11
f 11//11 10//2 12//12
f 12//12 10//2 13//13
f 13//13 10//2 14//14
f 14//14 10//2 15//15
f 15//15 10//2 16//16
f 16//16 10//2 17//17
f 17//17 10//2 18//18
f 18//18 10//2 19//19
f 19//19 10//2 20//20
f 20//20 10//2 21//21
f 21//21 10//2 22//22
f 22//22 10//2 23//23
f 23//23 10//2 24//24
f 24//24 10//2 25//25
f 25//25 10//2 26//26
f 26//26 10//2 27//27
f 27//27 10//2 28//28
f 28//28 10//2 29//29
f 29//29 10//2 30//30
f 30//30 10//2 31//31
f 31//31 10//2 32//32
f 32//32 10//2 33//33
f 33//33 10//2 1//1
f 17//17 25//25 33//33
f 33//33 1//1 2//3
f 2//3 3//4 4//5
f 4//5 5//6 8//9
f 6//7 7//8 8//9
f 8//9 9//10 13//13
f 11//11 12//12 13//13
f 13//13 14//14 17//17
f 15//15 16//16 17//17
f 17//17 18//18 19//19
f 19//19 20//20 21//21
f 21//21 22//22 25//25
f 23//23 24//24 25//25
f 25//25 26//26 27//27
f 27//27 28//28 29//29
f 29//29 30//30 33//33
f 31//31 32//32 33//33
f 33//33 2//3 8//9
f 5//6 6//7 8//9
f 9//10 11//11 13//13
f 14//14 15//15 17//17
f 17//17 19//19 25//25
f 22//22 23//23 25//25
f 25//25 27//27 33//33
f 30//30 31//31 33//33
f 2//3 4//5 8//9
f 8//9 13//13 17//17
f 19//19 21//21 25//25
f 27//27 29//29 33//33
f 33//33 8//9 17//17
