# Blender v2.78 (sub 0) OBJ File: 'new_plan2.blend'
# www.blender.org
mtllib cstairs.mtl
o Cube_Cube.108
v 31.811745 0.973228 -17.459396
v 31.811745 0.973228 -20.052010
v 31.811745 4.223228 -20.052010
v 43.444939 0.973228 -17.459396
v 43.444939 0.973228 -20.052010
v 43.444939 4.223228 -20.052010
v 31.811745 1.439371 -17.459396
v 31.811745 3.760799 -20.052010
v 31.811745 3.296513 -20.052010
v 31.811745 2.832228 -20.052010
v 31.811745 2.367942 -20.052010
v 31.811745 1.903656 -20.052010
v 31.811745 1.439371 -20.052010
v 43.444939 3.760799 -20.052010
v 43.444939 3.296513 -20.052010
v 43.444939 2.832228 -20.052010
v 43.444939 2.367942 -20.052010
v 43.444939 1.903656 -20.052010
v 43.444939 1.439371 -20.052010
v 43.444939 1.439371 -17.459396
v 31.811745 0.973228 -19.681637
v 31.811745 0.973228 -19.311264
v 31.811745 0.973228 -18.940889
v 31.811745 0.973228 -18.570517
v 31.811745 0.973228 -18.200142
v 31.811745 0.973228 -17.829769
v 31.811745 4.223228 -19.681637
v 43.444939 0.973228 -17.829769
v 43.444939 0.973228 -18.200142
v 43.444939 0.973228 -18.570517
v 43.444939 0.973228 -18.940889
v 43.444939 0.973228 -19.311264
v 43.444939 0.973228 -19.681637
v 43.444939 4.223228 -19.681637
v 43.444939 1.439371 -19.681637
v 43.444939 1.439371 -19.311264
v 43.444939 1.439371 -18.940889
v 43.444939 1.439371 -18.570517
v 43.444939 1.439371 -18.200142
v 43.444939 1.439371 -17.829769
v 43.444939 1.903656 -19.681637
v 43.444939 1.903656 -19.311264
v 43.444939 1.903656 -18.940889
v 43.444939 1.903656 -18.570517
v 43.444939 1.903656 -18.200142
v 43.444939 1.903656 -17.829769
v 43.444939 2.367942 -19.681637
v 43.444939 2.367942 -19.311264
v 43.444939 2.367942 -18.940889
v 43.444939 2.367942 -18.570517
v 43.444939 2.367942 -18.200142
v 43.444939 2.832228 -19.681637
v 43.444939 2.832228 -19.311264
v 43.444939 2.832228 -18.940889
v 43.444939 2.832228 -18.570517
v 43.444939 3.296513 -19.681637
v 43.444939 3.296513 -19.311264
v 43.444939 3.296513 -18.940889
v 43.444939 3.760799 -19.681637
v 43.444939 3.760799 -19.311264
v 31.811745 1.439371 -17.829769
v 31.811745 1.439371 -18.200142
v 31.811745 1.439371 -18.570517
v 31.811745 1.439371 -18.940889
v 31.811745 1.439371 -19.311264
v 31.811745 1.439371 -19.681637
v 31.811745 1.903656 -17.829769
v 31.811745 1.903656 -18.200142
v 31.811745 1.903656 -18.570517
v 31.811745 1.903656 -18.940889
v 31.811745 1.903656 -19.311264
v 31.811745 1.903656 -19.681637
v 31.811745 2.367942 -18.200142
v 31.811745 2.367942 -18.570517
v 31.811745 2.367942 -18.940889
v 31.811745 2.367942 -19.311264
v 31.811745 2.367942 -19.681637
v 31.811745 2.832228 -18.570517
v 31.811745 2.832228 -18.940889
v 31.811745 2.832228 -19.311264
v 31.811745 2.832228 -19.681637
v 31.811745 3.296513 -18.940889
v 31.811745 3.296513 -19.311264
v 31.811745 3.296513 -19.681637
v 31.811745 3.760799 -19.311264
v 31.811745 3.760799 -19.681637
v 41.118301 0.973228 -20.052010
v 38.791660 0.973228 -20.052010
v 36.465023 0.973228 -20.052010
v 34.138382 0.973228 -20.052010
v 34.138382 4.223228 -20.052010
v 36.465023 4.223228 -20.052010
v 38.791660 4.223228 -20.052010
v 41.118301 4.223228 -20.052010
v 34.138382 0.973228 -16.945360
v 36.465023 0.973228 -15.792555
v 38.791660 0.973228 -15.792555
v 41.118301 0.973228 -16.945360
v 41.118301 1.439371 -16.945360
v 38.791660 1.439371 -15.792555
v 36.465023 1.439371 -15.792555
v 34.138382 1.439371 -16.945360
v 34.138382 1.439371 -20.052010
v 36.465023 1.439371 -20.052010
v 38.791660 1.439371 -20.052010
v 41.118301 1.439371 -20.052010
v 34.138382 1.903656 -20.052010
v 36.465023 1.903656 -20.052010
v 38.791660 1.903656 -20.052010
v 41.118301 1.903656 -20.052010
v 34.138382 2.367942 -20.052010
v 36.465023 2.367942 -20.052010
v 38.791660 2.367942 -20.052010
v 41.118301 2.367942 -20.052010
v 34.138382 2.832228 -20.052010
v 36.465023 2.832228 -20.052010
v 38.791660 2.832228 -20.052010
v 41.118301 2.832228 -20.052010
v 34.138382 3.296513 -20.052010
v 36.465023 3.296513 -20.052010
v 38.791660 3.296513 -20.052010
v 41.118301 3.296513 -20.052010
v 34.138382 3.760799 -20.052010
v 36.465023 3.760799 -20.052010
v 38.791660 3.760799 -20.052010
v 41.118301 3.760799 -20.052010
v 34.138382 4.223228 -19.167601
v 36.465023 4.223228 -18.014795
v 38.791660 4.223228 -18.014795
v 41.118301 4.223228 -19.167601
v 41.118301 3.760799 -19.167601
v 38.791660 3.760799 -18.014795
v 36.465023 3.760799 -18.014795
v 34.138382 3.760799 -19.167601
v 41.118301 0.973228 -19.681637
v 38.791660 0.973228 -19.681637
v 36.465023 0.973228 -19.681637
v 34.138382 0.973228 -19.681637
v 41.118301 0.973228 -19.311264
v 38.791660 0.973228 -19.311264
v 36.465023 0.973228 -19.311264
v 34.138382 0.973228 -19.311264
v 41.118301 0.973228 -18.940889
v 38.791660 0.973228 -18.940889
v 36.465023 0.973228 -18.940889
v 34.138382 0.973228 -18.940889
v 41.118301 0.973228 -18.570517
v 38.791660 0.973228 -18.570517
v 36.465023 0.973228 -18.570517
v 34.138382 0.973228 -18.570517
v 41.118301 0.973228 -18.200142
v 38.791660 0.973228 -18.200142
v 36.465023 0.973228 -18.200142
v 34.138382 0.973228 -18.200142
v 41.118301 0.973228 -17.829769
v 38.791660 0.973228 -17.829769
v 36.465023 0.973228 -17.829769
v 34.138382 0.973228 -17.829769
v 34.138382 3.296513 -18.797228
v 36.465023 3.296513 -17.644423
v 38.791660 3.296513 -17.644423
v 41.118301 3.296513 -18.797228
v 34.138382 3.760799 -18.797228
v 36.465023 3.760799 -17.644423
v 38.791660 3.760799 -17.644423
v 41.118301 3.760799 -18.797228
v 34.138382 2.832228 -18.426853
v 36.465023 2.832228 -17.274050
v 38.791660 2.832228 -17.274050
v 41.118301 2.832228 -18.426853
v 34.138382 3.296513 -18.426853
v 36.465023 3.296513 -17.274050
v 38.791660 3.296513 -17.274050
v 41.118301 3.296513 -18.426853
v 34.138382 2.367942 -18.056480
v 36.465023 2.367942 -16.903675
v 38.791660 2.367942 -16.903675
v 41.118301 2.367942 -18.056480
v 34.138382 2.832228 -18.056480
v 36.465023 2.832228 -16.903675
v 38.791660 2.832228 -16.903675
v 41.118301 2.832228 -18.056480
v 34.138382 1.903656 -17.686106
v 36.465023 1.903656 -16.533302
v 38.791660 1.903656 -16.533302
v 41.118301 1.903656 -17.686106
v 34.138382 2.367942 -17.686106
v 36.465023 2.367942 -16.533302
v 38.791660 2.367942 -16.533302
v 41.118301 2.367942 -17.686106
v 34.138382 1.439371 -17.315733
v 36.465023 1.439371 -16.162930
v 38.791660 1.439371 -16.162930
v 41.118301 1.439371 -17.315733
v 34.138382 1.903656 -17.315733
v 36.465023 1.903656 -16.162930
v 38.791660 1.903656 -16.162930
v 41.118301 1.903656 -17.315733
vt -7.6329 2.5433
vt -7.9286 2.2525
vt -7.6329 2.2525
vt -2.4576 -1.1857
vt -2.7522 0.5000
vt -2.7522 -1.1857
vt -6.1543 -6.2429
vt -5.8586 -7.9286
vt -5.4481 -6.2429
vt -0.6845 0.7919
vt -0.3876 0.5000
vt -0.3876 0.7919
vt -4.2308 -1.1857
vt -4.5277 0.5000
vt -4.5277 -1.1857
vt -3.9351 -1.1857
vt -4.2308 0.5000
vt -3.6393 -1.1857
vt -3.9351 0.5000
vt -3.3436 -1.1857
vt -3.6393 0.5000
vt -3.0479 -1.1857
vt -3.3436 0.5000
vt -3.0479 0.5000
vt -7.6329 0.7931
vt -7.9286 0.5000
vt -7.6329 0.5000
vt -7.6329 1.0850
vt -7.9286 0.7931
vt -7.6329 1.3769
vt -7.9286 1.0850
vt -7.6329 1.6688
vt -7.9286 1.3769
vt -7.6329 1.9606
vt -7.9286 1.6688
vt -7.9286 1.9606
vt -7.3372 2.2525
vt -7.3372 1.9606
vt -7.0415 1.9606
vt -7.3372 1.6688
vt -7.0415 1.6688
vt -6.7458 1.6688
vt -7.0415 1.3769
vt -6.7458 1.3769
vt -7.3372 1.3769
vt -6.4500 1.3769
vt -6.7458 1.0850
vt -6.4500 1.0850
vt -7.0415 1.0850
vt -7.3372 1.0850
vt -6.1543 1.0850
vt -6.4500 0.7931
vt -6.1543 0.7931
vt -6.7458 0.7931
vt -7.0415 0.7931
vt -7.3372 0.7931
vt -5.8586 0.7931
vt -6.1543 0.5000
vt -5.8586 0.5000
vt -6.4500 0.5000
vt -6.7458 0.5000
vt -7.0415 0.5000
vt -7.3372 0.5000
vt -2.1631 2.5433
vt -1.8674 2.2514
vt -1.8674 2.5433
vt -2.1631 2.2514
vt -1.8674 1.9595
vt -1.5716 2.2514
vt -1.5716 2.5433
vt -1.5716 1.9595
vt -1.5716 1.6676
vt -1.2759 2.2514
vt -1.2759 2.5433
vt -1.2759 1.9595
vt -1.2759 1.6676
vt -1.2759 1.3757
vt -0.9802 2.2514
vt -0.9802 2.5433
vt -0.9802 1.9595
vt -0.9802 1.6676
vt -0.9802 1.3757
vt -0.9802 1.0838
vt -0.6845 2.2514
vt -0.6845 2.5433
vt -0.6845 1.9595
vt -0.6845 1.6676
vt -0.6845 1.3757
vt -0.6845 1.0838
vt -0.3876 2.2514
vt -0.3876 2.5433
vt -0.3876 1.9595
vt -0.3876 1.6676
vt -0.3876 1.3757
vt -0.3876 1.0838
vt 5.6754 -6.2429
vt 5.9712 -7.9286
vt 6.3816 -6.2429
vt -1.2414 -1.1857
vt -1.1267 0.5000
vt -1.5372 -1.1857
vt -7.9286 -7.9286
vt -7.6329 -6.2429
vt -7.9286 -6.2429
vt -7.6329 -7.9286
vt -7.3372 -6.2429
vt -7.3372 -7.9286
vt -7.0415 -6.2429
vt -7.0415 -7.9286
vt -6.7458 -6.2429
vt -6.7458 -7.9286
vt -6.4500 -6.2429
vt -6.4500 -7.9286
vt -2.4576 2.5433
vt 3.6384 -1.1857
vt 3.7531 0.5000
vt 3.3427 -1.1857
vt 0.3852 -1.1857
vt 0.4999 0.5000
vt 0.0894 -1.1857
vt 2.0118 -1.1857
vt 2.1265 0.5000
vt 1.7161 -1.1857
vt 5.2650 -1.1857
vt 5.3797 0.5000
vt 4.9693 -1.1857
vt 8.5182 -1.1857
vt 8.6329 0.5000
vt 8.2225 -1.1857
vt 8.6329 -7.9286
vt 8.5182 -6.2429
vt 8.2225 -6.2429
vt 7.5978 -4.5572
vt 7.3020 -4.5572
vt 7.3020 -2.8715
vt 7.5978 -2.8715
vt 5.2650 -6.2429
vt 5.3797 -7.9286
vt 5.6754 -7.9286
vt 4.3445 -4.5572
vt 4.9693 -6.2429
vt 4.3445 -2.8715
vt 4.0488 -4.5572
vt 4.0488 -2.8715
vt 2.0118 -6.2429
vt 2.1265 -7.9286
vt 2.4222 -7.9286
vt 1.0913 -4.5572
vt 1.7161 -6.2429
vt 1.0913 -2.8715
vt 0.7956 -4.5572
vt 0.7956 -2.8715
vt 0.3852 -6.2429
vt 0.4999 -7.9286
vt 0.7956 -7.9286
vt -0.5353 -4.5572
vt 0.0894 -6.2429
vt -0.5353 -2.8715
vt -0.8310 -4.5572
vt -0.8310 -2.8715
vt 3.6384 -6.2429
vt 3.7531 -7.9286
vt 4.0488 -7.9286
vt 2.7179 -4.5572
vt 3.3427 -6.2429
vt 2.7179 -2.8715
vt 2.4222 -4.5572
vt 2.4222 -2.8715
vt -6.4500 -1.1857
vt -6.4500 -2.8715
vt -6.1543 -1.1857
vt -6.4500 -4.5572
vt -6.1543 -2.8715
vt -6.1543 -4.5572
vt -6.7457 -1.1857
vt -6.7457 0.5000
vt -6.7457 -2.8715
vt -6.7457 -4.5572
vt -7.0415 -1.1857
vt -7.0415 -2.8715
vt -7.0415 -4.5572
vt -7.3372 -1.1857
vt -7.3372 -2.8715
vt -7.3372 -4.5572
vt -7.6329 -1.1857
vt -7.6329 -2.8715
vt -7.6329 -4.5572
vt -7.9286 -1.1857
vt -7.9286 -2.8715
vt -7.9286 -4.5572
vt -1.2414 -6.2429
vt -1.1267 -7.9286
vt -0.8310 -7.9286
vt -2.1619 -4.5572
vt -1.5372 -6.2429
vt -2.1619 -2.8715
vt -2.4576 -4.5572
vt -2.4576 -2.8715
vt 5.6754 -1.1857
vt 5.9711 0.5000
vt 5.6754 0.5000
vt 5.6754 -2.8715
vt 6.3816 -1.1857
vt 5.6754 -4.5572
vt 7.3020 -2.8715
vt 7.3020 -4.5572
vt -2.7522 -7.9286
vt -3.0479 -6.2429
vt -3.0479 -7.9286
vt -2.7522 -6.2429
vt -3.0479 -4.5572
vt -2.7522 -4.5572
vt -3.0479 -2.8715
vt -2.7522 -2.8715
vt -3.3436 -6.2429
vt -3.3436 -7.9286
vt -3.3436 -4.5572
vt -3.3436 -2.8715
vt -3.6393 -6.2429
vt -3.6393 -7.9286
vt -3.6393 -4.5572
vt -3.6393 -2.8715
vt -3.9351 -6.2429
vt -3.9351 -7.9286
vt -3.9351 -4.5572
vt -3.9351 -2.8715
vt -4.2308 -6.2429
vt -4.2308 -7.9286
vt -4.2308 -4.5572
vt -4.2308 -2.8715
vt -4.5277 -6.2429
vt -4.5277 -7.9286
vt -4.5277 -4.5572
vt -4.5277 -2.8715
vt -5.4481 -1.1857
vt -4.5277 -2.8715
vt -4.5277 -4.5572
vt -2.4576 -7.9286
vt -2.4576 -6.2429
vt -2.4576 -4.5572
vt -2.4576 -2.8715
vt -7.9286 2.5433
vt -2.4576 0.5000
vt -6.1543 -7.9286
vt -0.6845 0.5000
vt -2.1631 1.9595
vt -1.8674 1.6676
vt -1.5716 1.3757
vt -1.2759 1.0838
vt -0.9802 0.7919
vt 5.6754 -7.9286
vt -0.8310 0.5000
vt -2.4576 2.2514
vt 4.0488 0.5000
vt 0.7956 0.5000
vt 2.4222 0.5000
vt 5.6754 0.5000
vt 8.9286 0.5000
vt 8.9286 -7.9286
vt -5.5617 7.2429
vt -5.8586 8.9286
vt -5.8586 7.2429
vt -3.3436 2.1857
vt -3.0491 0.5000
vt -3.0491 2.1857
vt -4.9702 0.5000
vt -4.6745 2.1857
vt -4.9702 2.1857
vt -5.2659 0.5000
vt -4.9702 2.1857
vt -5.2659 2.1857
vt -2.7533 8.9286
vt -3.0491 7.2429
vt -2.7533 7.2429
vt -2.7533 0.5000
vt -2.4576 2.1857
vt -2.7533 2.1857
vt -5.5617 0.5000
vt -5.2659 2.1857
vt -5.5617 2.1857
vt -5.5617 7.2429
vt -5.2659 8.9286
vt -5.5617 8.9286
vt -5.5617 5.5572
vt -5.2659 7.2429
vt -5.5617 3.8715
vt -5.2659 5.5572
vt -5.2659 3.8715
vt -2.7533 7.2429
vt -2.4576 8.9286
vt -2.7533 8.9286
vt -2.7533 5.5572
vt -2.4576 7.2429
vt -2.7533 3.8715
vt -2.4576 5.5572
vt -2.4576 3.8715
vt -2.7533 2.1857
vt -3.0491 0.5000
vt -2.7534 0.5000
vt -2.7533 3.8715
vt -3.0491 2.1857
vt -2.7533 5.5572
vt -3.0491 3.8715
vt -3.0491 5.5572
vt -5.2659 7.2429
vt -4.9702 8.9286
vt -5.2659 8.9286
vt -5.2659 5.5572
vt -4.9702 7.2429
vt -5.2659 3.8715
vt -4.9702 5.5572
vt -4.9702 3.8715
vt -4.9702 7.2429
vt -4.6745 8.9286
vt -4.9702 8.9286
vt -4.9702 5.5572
vt -4.6745 7.2429
vt -4.9702 3.8715
vt -4.6745 5.5572
vt -4.6745 3.8715
vt -3.3436 8.9286
vt -3.0491 7.2429
vt -3.0491 8.9286
vt -3.3436 7.2429
vt -3.0491 5.5572
vt -3.3436 5.5572
vt -3.0491 3.8715
vt -3.3436 3.8715
vt -5.5617 0.5000
vt -5.8586 2.1857
vt -5.8586 0.5000
vt -5.5617 2.1857
vt -5.8586 3.8715
vt -5.5617 3.8715
vt -5.8586 5.5572
vt -5.5617 5.5572
vt -5.5617 8.9286
vt -3.3436 0.5000
vt -4.6745 0.5000
vt -4.9702 0.5000
vt -3.0491 8.9286
vt -2.4576 0.5000
vt -5.2659 0.5000
vn -1.0000 0.0000 0.0000
vn 0.0000 0.0000 -1.0000
vn 0.0000 -1.0000 0.0000
vn 1.0000 0.0000 0.0000
vn 0.0000 1.0000 0.0000
vn -0.2157 0.0000 0.9765
vn 0.2157 0.0000 0.9765
vn -0.4440 0.0000 0.8960
vn 0.0000 0.0000 1.0000
vn 0.4440 0.0000 0.8960
usemtl cstairs
s off
f 27/1/1 8/2/1 86/3/1
f 94/4/2 14/5/2 126/6/2
f 155/7/3 4/8/3 98/9/3
f 40/10/4 4/11/4 28/12/4
f 106/13/2 5/14/2 87/15/2
f 110/16/2 19/17/2 106/13/2
f 114/18/2 18/19/2 110/16/2
f 118/20/2 17/21/2 114/18/2
f 122/22/2 16/23/2 118/20/2
f 126/6/2 15/24/2 122/22/2
f 66/25/1 2/26/1 21/27/1
f 72/28/1 13/29/1 66/25/1
f 77/30/1 12/31/1 72/28/1
f 81/32/1 11/33/1 77/30/1
f 84/34/1 10/35/1 81/32/1
f 86/3/1 9/36/1 84/34/1
f 85/37/1 84/34/1 83/38/1
f 82/39/1 80/40/1 79/41/1
f 83/38/1 81/32/1 80/40/1
f 78/42/1 75/43/1 74/44/1
f 79/41/1 76/45/1 75/43/1
f 80/40/1 77/30/1 76/45/1
f 73/46/1 69/47/1 68/48/1
f 74/44/1 70/49/1 69/47/1
f 75/43/1 71/50/1 70/49/1
f 76/45/1 72/28/1 71/50/1
f 67/51/1 62/52/1 61/53/1
f 68/48/1 63/54/1 62/52/1
f 69/47/1 64/55/1 63/54/1
f 70/49/1 65/56/1 64/55/1
f 71/50/1 66/25/1 65/56/1
f 7/57/1 26/58/1 1/59/1
f 61/53/1 25/60/1 26/58/1
f 62/52/1 24/61/1 25/60/1
f 63/54/1 23/62/1 24/61/1
f 64/55/1 22/63/1 23/62/1
f 65/56/1 21/27/1 22/63/1
f 14/64/4 56/65/4 15/66/4
f 59/67/4 57/68/4 56/65/4
f 15/66/4 52/69/4 16/70/4
f 56/65/4 53/71/4 52/69/4
f 57/68/4 54/72/4 53/71/4
f 16/70/4 47/73/4 17/74/4
f 52/69/4 48/75/4 47/73/4
f 53/71/4 49/76/4 48/75/4
f 54/72/4 50/77/4 49/76/4
f 17/74/4 41/78/4 18/79/4
f 47/73/4 42/80/4 41/78/4
f 48/75/4 43/81/4 42/80/4
f 49/76/4 44/82/4 43/81/4
f 50/77/4 45/83/4 44/82/4
f 18/79/4 35/84/4 19/85/4
f 41/78/4 36/86/4 35/84/4
f 42/80/4 37/87/4 36/86/4
f 43/81/4 38/88/4 37/87/4
f 44/82/4 39/89/4 38/88/4
f 45/83/4 40/10/4 39/89/4
f 19/85/4 33/90/4 5/91/4
f 35/84/4 32/92/4 33/90/4
f 36/86/4 31/93/4 32/92/4
f 37/87/4 30/94/4 31/93/4
f 38/88/4 29/95/4 30/94/4
f 39/89/4 28/12/4 29/95/4
f 91/96/5 27/97/5 127/98/5
f 134/99/5 85/100/5 163/101/5
f 5/102/3 135/103/3 87/104/3
f 33/105/3 139/106/3 135/103/3
f 32/107/3 143/108/3 139/106/3
f 31/109/3 147/110/3 143/108/3
f 30/111/3 151/112/3 147/110/3
f 29/113/3 155/7/3 151/112/3
f 6/114/4 59/67/4 14/64/4
f 159/115/5 82/116/5 171/117/5
f 167/118/5 78/119/5 179/120/5
f 175/121/5 73/122/5 187/123/5
f 183/124/5 67/125/5 195/126/5
f 191/127/5 7/128/5 102/129/5
f 20/130/5 194/131/5 99/132/5
f 99/132/5 193/133/5 100/134/5
f 193/133/5 101/135/5 100/134/5
f 192/136/5 102/129/5 101/135/5
f 186/137/5 46/138/5 45/139/5
f 185/140/5 198/141/5 186/137/5
f 184/142/5 197/143/5 185/140/5
f 184/142/5 195/126/5 196/144/5
f 178/145/5 51/146/5 50/147/5
f 177/148/5 190/149/5 178/145/5
f 176/150/5 189/151/5 177/148/5
f 176/150/5 187/123/5 188/152/5
f 170/153/5 55/154/5 54/155/5
f 169/156/5 182/157/5 170/153/5
f 168/158/5 181/159/5 169/156/5
f 168/158/5 179/120/5 180/160/5
f 162/161/5 58/162/5 57/163/5
f 161/164/5 174/165/5 162/161/5
f 160/166/5 173/167/5 161/164/5
f 160/166/5 171/117/5 172/168/5
f 154/169/3 26/58/3 25/60/3
f 153/170/3 158/171/3 154/169/3
f 152/172/3 157/173/3 153/170/3
f 151/112/3 156/174/3 152/172/3
f 150/175/3 25/60/3 24/176/3
f 149/177/3 154/169/3 150/175/3
f 148/178/3 153/170/3 149/177/3
f 147/110/3 152/172/3 148/178/3
f 146/179/3 24/176/3 23/62/3
f 145/180/3 150/175/3 146/179/3
f 144/181/3 149/177/3 145/180/3
f 143/108/3 148/178/3 144/181/3
f 142/182/3 23/62/3 22/63/3
f 141/183/3 146/179/3 142/182/3
f 140/184/3 145/180/3 141/183/3
f 139/106/3 144/181/3 140/184/3
f 138/185/3 22/63/3 21/27/3
f 137/186/3 142/182/3 138/185/3
f 136/187/3 141/183/3 137/186/3
f 135/103/3 140/184/3 136/187/3
f 90/188/3 21/27/3 2/26/3
f 89/189/3 138/185/3 90/188/3
f 88/190/3 137/186/3 89/189/3
f 87/104/3 136/187/3 88/190/3
f 131/191/5 60/192/5 59/193/5
f 132/194/5 166/195/5 131/191/5
f 133/196/5 165/197/5 132/194/5
f 133/196/5 163/101/5 164/198/5
f 94/199/5 34/200/5 6/201/5
f 93/202/5 130/203/5 94/199/5
f 92/204/5 129/205/5 93/202/5
f 92/204/5 127/98/5 128/206/5
f 8/207/2 119/208/2 9/209/2
f 123/210/2 120/211/2 119/208/2
f 124/212/2 121/213/2 120/211/2
f 125/214/2 122/22/2 121/213/2
f 9/209/2 115/215/2 10/216/2
f 119/208/2 116/217/2 115/215/2
f 120/211/2 117/218/2 116/217/2
f 121/213/2 118/20/2 117/218/2
f 10/216/2 111/219/2 11/220/2
f 115/215/2 112/221/2 111/219/2
f 116/217/2 113/222/2 112/221/2
f 117/218/2 114/18/2 113/222/2
f 11/220/2 107/223/2 12/224/2
f 111/219/2 108/225/2 107/223/2
f 112/221/2 109/226/2 108/225/2
f 113/222/2 110/16/2 109/226/2
f 12/224/2 103/227/2 13/228/2
f 107/223/2 104/229/2 103/227/2
f 108/225/2 105/230/2 104/229/2
f 109/226/2 106/13/2 105/230/2
f 13/228/2 90/231/2 2/232/2
f 103/227/2 89/233/2 90/231/2
f 104/229/2 88/234/2 89/233/2
f 105/230/2 87/15/2 88/234/2
f 158/171/3 1/59/3 26/58/3
f 157/173/3 95/235/3 158/171/3
f 156/174/3 96/236/3 157/173/3
f 156/174/3 98/9/3 97/237/3
f 3/238/2 123/210/2 8/207/2
f 91/239/2 124/212/2 123/210/2
f 92/240/2 125/214/2 124/212/2
f 93/241/2 126/6/2 125/214/2
f 27/1/1 3/242/1 8/2/1
f 94/4/2 6/243/2 14/5/2
f 155/7/3 28/244/3 4/8/3
f 40/10/4 20/245/4 4/11/4
f 106/13/2 19/17/2 5/14/2
f 110/16/2 18/19/2 19/17/2
f 114/18/2 17/21/2 18/19/2
f 118/20/2 16/23/2 17/21/2
f 122/22/2 15/24/2 16/23/2
f 126/6/2 14/5/2 15/24/2
f 66/25/1 13/29/1 2/26/1
f 72/28/1 12/31/1 13/29/1
f 77/30/1 11/33/1 12/31/1
f 81/32/1 10/35/1 11/33/1
f 84/34/1 9/36/1 10/35/1
f 86/3/1 8/2/1 9/36/1
f 85/37/1 86/3/1 84/34/1
f 82/39/1 83/38/1 80/40/1
f 83/38/1 84/34/1 81/32/1
f 78/42/1 79/41/1 75/43/1
f 79/41/1 80/40/1 76/45/1
f 80/40/1 81/32/1 77/30/1
f 73/46/1 74/44/1 69/47/1
f 74/44/1 75/43/1 70/49/1
f 75/43/1 76/45/1 71/50/1
f 76/45/1 77/30/1 72/28/1
f 67/51/1 68/48/1 62/52/1
f 68/48/1 69/47/1 63/54/1
f 69/47/1 70/49/1 64/55/1
f 70/49/1 71/50/1 65/56/1
f 71/50/1 72/28/1 66/25/1
f 7/57/1 61/53/1 26/58/1
f 61/53/1 62/52/1 25/60/1
f 62/52/1 63/54/1 24/61/1
f 63/54/1 64/55/1 23/62/1
f 64/55/1 65/56/1 22/63/1
f 65/56/1 66/25/1 21/27/1
f 14/64/4 59/67/4 56/65/4
f 59/67/4 60/246/4 57/68/4
f 15/66/4 56/65/4 52/69/4
f 56/65/4 57/68/4 53/71/4
f 57/68/4 58/247/4 54/72/4
f 16/70/4 52/69/4 47/73/4
f 52/69/4 53/71/4 48/75/4
f 53/71/4 54/72/4 49/76/4
f 54/72/4 55/248/4 50/77/4
f 17/74/4 47/73/4 41/78/4
f 47/73/4 48/75/4 42/80/4
f 48/75/4 49/76/4 43/81/4
f 49/76/4 50/77/4 44/82/4
f 50/77/4 51/249/4 45/83/4
f 18/79/4 41/78/4 35/84/4
f 41/78/4 42/80/4 36/86/4
f 42/80/4 43/81/4 37/87/4
f 43/81/4 44/82/4 38/88/4
f 44/82/4 45/83/4 39/89/4
f 45/83/4 46/250/4 40/10/4
f 19/85/4 35/84/4 33/90/4
f 35/84/4 36/86/4 32/92/4
f 36/86/4 37/87/4 31/93/4
f 37/87/4 38/88/4 30/94/4
f 38/88/4 39/89/4 29/95/4
f 39/89/4 40/10/4 28/12/4
f 91/96/5 3/251/5 27/97/5
f 134/99/5 86/252/5 85/100/5
f 5/102/3 33/105/3 135/103/3
f 33/105/3 32/107/3 139/106/3
f 32/107/3 31/109/3 143/108/3
f 31/109/3 30/111/3 147/110/3
f 30/111/3 29/113/3 151/112/3
f 29/113/3 28/244/3 155/7/3
f 6/114/4 34/253/4 59/67/4
f 159/115/5 83/254/5 82/116/5
f 167/118/5 79/255/5 78/119/5
f 175/121/5 74/256/5 73/122/5
f 183/124/5 68/257/5 67/125/5
f 191/127/5 61/258/5 7/128/5
f 20/130/5 40/259/5 194/131/5
f 99/132/5 194/131/5 193/133/5
f 193/133/5 192/136/5 101/135/5
f 192/136/5 191/127/5 102/129/5
f 186/137/5 198/141/5 46/138/5
f 185/140/5 197/143/5 198/141/5
f 184/142/5 196/144/5 197/143/5
f 184/142/5 183/124/5 195/126/5
f 178/145/5 190/149/5 51/146/5
f 177/148/5 189/151/5 190/149/5
f 176/150/5 188/152/5 189/151/5
f 176/150/5 175/121/5 187/123/5
f 170/153/5 182/157/5 55/154/5
f 169/156/5 181/159/5 182/157/5
f 168/158/5 180/160/5 181/159/5
f 168/158/5 167/118/5 179/120/5
f 162/161/5 174/165/5 58/162/5
f 161/164/5 173/167/5 174/165/5
f 160/166/5 172/168/5 173/167/5
f 160/166/5 159/115/5 171/117/5
f 154/169/3 158/171/3 26/58/3
f 153/170/3 157/173/3 158/171/3
f 152/172/3 156/174/3 157/173/3
f 151/112/3 155/7/3 156/174/3
f 150/175/3 154/169/3 25/60/3
f 149/177/3 153/170/3 154/169/3
f 148/178/3 152/172/3 153/170/3
f 147/110/3 151/112/3 152/172/3
f 146/179/3 150/175/3 24/176/3
f 145/180/3 149/177/3 150/175/3
f 144/181/3 148/178/3 149/177/3
f 143/108/3 147/110/3 148/178/3
f 142/182/3 146/179/3 23/62/3
f 141/183/3 145/180/3 146/179/3
f 140/184/3 144/181/3 145/180/3
f 139/106/3 143/108/3 144/181/3
f 138/185/3 142/182/3 22/63/3
f 137/186/3 141/183/3 142/182/3
f 136/187/3 140/184/3 141/183/3
f 135/103/3 139/106/3 140/184/3
f 90/188/3 138/185/3 21/27/3
f 89/189/3 137/186/3 138/185/3
f 88/190/3 136/187/3 137/186/3
f 87/104/3 135/103/3 136/187/3
f 131/191/5 166/195/5 60/192/5
f 132/194/5 165/197/5 166/195/5
f 133/196/5 164/198/5 165/197/5
f 133/196/5 134/99/5 163/101/5
f 94/199/5 130/203/5 34/200/5
f 93/202/5 129/205/5 130/203/5
f 92/204/5 128/206/5 129/205/5
f 92/204/5 91/96/5 127/98/5
f 8/207/2 123/210/2 119/208/2
f 123/210/2 124/212/2 120/211/2
f 124/212/2 125/214/2 121/213/2
f 125/214/2 126/6/2 122/22/2
f 9/209/2 119/208/2 115/215/2
f 119/208/2 120/211/2 116/217/2
f 120/211/2 121/213/2 117/218/2
f 121/213/2 122/22/2 118/20/2
f 10/216/2 115/215/2 111/219/2
f 115/215/2 116/217/2 112/221/2
f 116/217/2 117/218/2 113/222/2
f 117/218/2 118/20/2 114/18/2
f 11/220/2 111/219/2 107/223/2
f 111/219/2 112/221/2 108/225/2
f 112/221/2 113/222/2 109/226/2
f 113/222/2 114/18/2 110/16/2
f 12/224/2 107/223/2 103/227/2
f 107/223/2 108/225/2 104/229/2
f 108/225/2 109/226/2 105/230/2
f 109/226/2 110/16/2 106/13/2
f 13/228/2 103/227/2 90/231/2
f 103/227/2 104/229/2 89/233/2
f 104/229/2 105/230/2 88/234/2
f 105/230/2 106/13/2 87/15/2
f 158/171/3 95/235/3 1/59/3
f 157/173/3 96/236/3 95/235/3
f 156/174/3 97/237/3 96/236/3
f 156/174/3 155/7/3 98/9/3
f 3/238/2 91/239/2 123/210/2
f 91/239/2 92/240/2 124/212/2
f 92/240/2 93/241/2 125/214/2
f 93/241/2 94/4/2 126/6/2
usemtl cstairs_dark
f 102/260/6 1/261/6 95/262/6
f 131/263/7 34/264/7 130/265/7
f 57/266/7 166/267/7 162/268/7
f 54/269/7 174/270/7 170/271/7
f 50/272/7 182/273/7 178/274/7
f 45/275/7 190/276/7 186/277/7
f 40/278/7 198/279/7 194/280/7
f 191/281/6 67/282/6 61/283/6
f 192/284/8 195/285/8 191/281/8
f 193/286/9 196/287/9 192/284/9
f 194/280/10 197/288/10 193/286/10
f 183/289/6 73/290/6 68/291/6
f 184/292/8 187/293/8 183/289/8
f 185/294/9 188/295/9 184/292/9
f 186/277/10 189/296/10 185/294/10
f 175/297/6 78/298/6 74/299/6
f 176/300/8 179/301/8 175/297/8
f 177/302/9 180/303/9 176/300/9
f 178/274/10 181/304/10 177/302/10
f 167/305/6 82/306/6 79/307/6
f 168/308/8 171/309/8 167/305/8
f 169/310/9 172/311/9 168/308/9
f 170/271/10 173/312/10 169/310/10
f 159/313/6 85/314/6 83/315/6
f 160/316/8 163/317/8 159/313/8
f 161/318/9 164/319/9 160/316/9
f 162/268/10 165/320/10 161/318/10
f 86/321/6 127/322/6 27/323/6
f 134/324/8 128/325/8 127/322/8
f 133/326/9 129/327/9 128/325/9
f 132/328/10 130/265/10 129/327/10
f 20/329/7 98/330/7 4/331/7
f 99/332/10 97/333/10 98/330/10
f 100/334/9 96/335/9 97/333/9
f 101/336/8 95/262/8 96/335/8
f 102/260/6 7/337/6 1/261/6
f 131/263/7 59/338/7 34/264/7
f 57/266/7 60/339/7 166/267/7
f 54/269/7 58/340/7 174/270/7
f 50/272/7 55/341/7 182/273/7
f 45/275/7 51/342/7 190/276/7
f 40/278/7 46/343/7 198/279/7
f 191/281/6 195/285/6 67/282/6
f 192/284/8 196/287/8 195/285/8
f 193/286/9 197/288/9 196/287/9
f 194/280/10 198/279/10 197/288/10
f 183/289/6 187/293/6 73/290/6
f 184/292/8 188/295/8 187/293/8
f 185/294/9 189/296/9 188/295/9
f 186/277/10 190/276/10 189/296/10
f 175/297/6 179/301/6 78/298/6
f 176/300/8 180/303/8 179/301/8
f 177/302/9 181/304/9 180/303/9
f 178/274/10 182/273/10 181/304/10
f 167/305/6 171/309/6 82/306/6
f 168/308/8 172/311/8 171/309/8
f 169/310/9 173/312/9 172/311/9
f 170/271/10 174/270/10 173/312/10
f 159/313/6 163/317/6 85/314/6
f 160/316/8 164/319/8 163/317/8
f 161/318/9 165/320/9 164/319/9
f 162/268/10 166/267/10 165/320/10
f 86/321/6 134/324/6 127/322/6
f 134/324/8 133/326/8 128/325/8
f 133/326/9 132/328/9 129/327/9
f 132/328/10 131/263/10 130/265/10
f 20/329/7 99/332/7 98/330/7
f 99/332/10 100/334/10 97/333/10
f 100/334/9 101/336/9 96/335/9
f 101/336/8 102/260/8 95/262/8
