# Blender v2.78 (sub 0) OBJ File: 'new_plan.blend'
# www.blender.org
mtllib door.mtl
o brick_door.002_Cube.067
v -0.500000 -2.000000 2.000000
v -0.500000 2.000000 2.000000
v -0.500000 -2.000000 -2.000000
v -0.500000 2.000000 -2.000000
v 0.500000 -2.000000 2.000000
v 0.500000 2.000000 2.000000
v 0.500000 -2.000000 -2.000000
v 0.500000 2.000000 -2.000000
v 0.500000 0.561349 0.765906
v -0.500000 0.561349 0.765906
v 0.500000 -2.000000 0.765906
v -0.500000 -2.000000 0.765906
v 0.500000 0.561349 -0.765906
v -0.500000 0.561349 -0.765906
v 0.500000 -2.000000 -0.765906
v -0.500000 -2.000000 -0.765906
vt 1.0000 1.5000
vt 2.0000 1.5000
vt 1.3085 1.1403
vt 1.0537 1.5000
vt 1.4463 0.5000
vt 1.0537 0.5000
vt 1.0000 1.5000
vt -0.0000 1.5000
vt 0.6915 1.1403
vt 0.4501 1.5000
vt 0.0499 0.5000
vt 0.4501 0.5000
vt 1.7500 1.0000
vt 0.7500 0.6915
vt 0.7500 1.0000
vt -0.2500 1.0000
vt 0.7500 -0.0000
vt 0.7500 1.0000
vt 0.9866 0.1403
vt 0.5272 -0.5000
vt 0.5272 0.1403
vt 0.0677 0.1403
vt 0.5272 -0.5000
vt 0.5272 0.1403
vt 0.5272 0.4632
vt 0.0677 0.8462
vt 0.5272 0.8462
vt 1.7500 0.3085
vt 0.7500 -0.0000
vt 0.7500 0.3085
vt 1.3085 0.5000
vt 1.0000 0.5000
vt 2.0000 0.5000
vt 1.6915 1.1403
vt 1.6915 0.5000
vt 1.4463 1.5000
vt 0.6915 0.5000
vt 1.0000 0.5000
vt -0.0000 0.5000
vt 0.3085 1.1403
vt 0.3085 0.5000
vt 0.0499 1.5000
vt 1.7500 0.6915
vt -0.2500 -0.0000
vt 0.9866 -0.5000
vt 0.0677 -0.5000
vt 0.0677 0.4632
vt 1.7500 -0.0000
vn -1.0000 0.0000 0.0000
vn 0.0000 0.0000 -1.0000
vn 1.0000 0.0000 0.0000
vn 0.0000 0.0000 1.0000
vn 0.0000 -1.0000 0.0000
vn 0.0000 1.0000 0.0000
usemtl brick
s off
f 2/1/1 4/2/1 10/3/1
f 4/4/2 7/5/2 3/6/2
f 8/7/3 6/8/3 13/9/3
f 6/10/4 1/11/4 5/12/4
f 7/13/5 16/14/5 3/15/5
f 4/16/6 6/17/6 8/18/6
f 9/19/2 12/20/2 10/21/2
f 14/22/4 15/23/4 13/24/4
f 9/25/5 14/26/5 13/27/5
f 11/28/5 1/29/5 12/30/5
f 12/31/1 1/32/1 10/3/1
f 4/2/1 3/33/1 14/34/1
f 3/33/1 16/35/1 14/34/1
f 10/3/1 1/32/1 2/1/1
f 4/2/1 14/34/1 10/3/1
f 4/4/2 8/36/2 7/5/2
f 15/37/3 7/38/3 13/9/3
f 6/8/3 5/39/3 9/40/3
f 5/39/3 11/41/3 9/40/3
f 13/9/3 7/38/3 8/7/3
f 6/8/3 9/40/3 13/9/3
f 6/10/4 2/42/4 1/11/4
f 7/13/5 15/43/5 16/14/5
f 4/16/6 2/44/6 6/17/6
f 9/19/2 11/45/2 12/20/2
f 14/22/4 16/46/4 15/23/4
f 9/25/5 10/47/5 14/26/5
f 11/28/5 5/48/5 1/29/5
