# Blender v2.78 (sub 0) OBJ File: 'new_plan2.blend'
# www.blender.org
mtllib frame.mtl
o frame_Cube.018
v -1.000000 -1.000000 0.100000
v -1.000000 1.000000 0.100000
v -1.000000 -1.000000 -0.100000
v -1.000000 1.000000 -0.100000
v 1.000000 -1.000000 0.100000
v 1.000000 1.000000 0.100000
v 1.000000 -1.000000 -0.100000
v 1.000000 1.000000 -0.100000
vt 0.9999 0.9999
vt 0.0001 0.0001
vt 0.9999 0.0001
vt 0.0001 0.9999
vt 0.0000 0.0000
vt 0.0000 0.0000
vt 0.0000 0.0000
vt 0.0000 0.0000
vt 0.0000 0.0000
vt 0.0000 0.0000
vt 0.0000 0.0000
vt 0.0000 0.0000
vn 0.0000 0.0000 1.0000
vn -1.0000 0.0000 0.0000
vn 0.0000 0.0000 -1.0000
vn 1.0000 0.0000 0.0000
vn 0.0000 -1.0000 0.0000
vn 0.0000 1.0000 0.0000
usemtl frame_front
s off
f 6/1/1 1/2/1 5/3/1
f 6/1/1 2/4/1 1/2/1
usemtl frame_body
f 2/5/2 3/6/2 1/7/2
f 4/8/3 7/9/3 3/6/3
f 8/10/4 5/11/4 7/9/4
f 7/9/5 1/7/5 3/6/5
f 4/8/6 6/12/6 8/10/6
f 2/5/2 4/8/2 3/6/2
f 4/8/3 8/10/3 7/9/3
f 8/10/4 6/12/4 5/11/4
f 7/9/5 5/11/5 1/7/5
f 4/8/6 2/5/6 6/12/6
