# Blender v2.78 (sub 0) OBJ File: 'new_plan2.blend'
# www.blender.org
mtllib Gem2.mtl
o Gem.002_Shape002.002
v 25.572327 10.611749 1.056862
v 25.400112 10.912199 0.984472
v 25.400112 10.578303 1.227723
v 25.513906 10.382976 1.215929
v 25.618679 10.449254 1.090287
v 25.400112 10.284242 1.339408
v 25.400112 10.282448 1.339907
v 25.560015 10.170681 1.236161
v 25.618679 10.233763 1.169111
v 25.618679 10.530823 0.984472
v 25.546610 10.007877 1.083773
v 25.618679 10.072358 0.984472
v 25.618679 10.114385 1.104702
v 25.400112 9.986240 1.243590
v 25.400112 9.894980 1.026848
v 25.420105 9.894980 0.998024
v 25.572327 10.611749 0.912082
v 25.400112 10.578303 0.741222
v 25.618679 10.449254 0.878658
v 25.513906 10.382976 0.753015
v 25.400112 10.284242 0.629537
v 25.560015 10.170681 0.732784
v 25.400112 10.282448 0.629037
v 25.618679 10.233763 0.799834
v 25.546610 10.007877 0.885171
v 25.618679 10.114385 0.864242
v 25.400112 9.986240 0.725355
v 25.420105 9.894980 0.970920
v 25.400112 9.894980 0.942097
v 25.227898 10.611749 1.056862
v 25.286318 10.382976 1.215929
v 25.181545 10.449254 1.090287
v 25.240210 10.170681 1.236161
v 25.181545 10.233763 1.169111
v 25.181545 10.530823 0.984472
v 25.253614 10.007877 1.083774
v 25.181545 10.114386 1.104703
v 25.181545 10.072358 0.984472
v 25.380119 9.894980 0.998024
v 25.227898 10.611749 0.912082
v 25.286318 10.382976 0.753015
v 25.181545 10.449254 0.878658
v 25.240210 10.170681 0.732784
v 25.181545 10.233763 0.799834
v 25.253614 10.007877 0.885171
v 25.181545 10.114386 0.864242
v 25.380119 9.894980 0.970920
vn 0.5666 0.4852 0.6660
vn 0.6336 0.3260 0.7016
vn 0.6337 0.3260 0.7016
vn 0.6338 0.3269 0.7010
vn 0.5769 0.2900 0.7636
vn 0.6306 0.2079 0.7477
vn 0.6306 0.2082 0.7476
vn 0.6726 0.2542 0.6950
vn 0.9193 0.3117 0.2402
vn 0.7925 -0.5758 0.2013
vn 0.8348 -0.2614 0.4845
vn 0.6534 -0.5453 0.5251
vn 0.4882 -0.8043 0.3387
vn 0.4883 -0.8043 0.3387
vn 0.5666 0.4852 -0.6660
vn 0.6336 0.3260 -0.7016
vn 0.6337 0.3260 -0.7016
vn 0.6335 0.3251 -0.7021
vn 0.5769 0.2900 -0.7636
vn 0.6306 0.2082 -0.7476
vn 0.6726 0.2542 -0.6950
vn 0.8676 0.4972 0.0000
vn 0.8676 0.4973 0.0000
vn 0.9193 0.3117 -0.2402
vn 0.7925 -0.5758 -0.2013
vn 0.8348 -0.2614 -0.4845
vn 0.6534 -0.5453 -0.5251
vn 0.4882 -0.8043 -0.3387
vn 0.6662 -0.7458 -0.0007
vn 0.6660 -0.7459 0.0007
vn 0.6662 -0.7458 -0.0000
vn 0.6661 -0.7458 0.0008
vn 1.0000 0.0000 0.0000
vn 0.3721 -0.2870 0.8827
vn 0.3721 -0.2870 -0.8827
vn -0.5665 0.4852 0.6660
vn -0.6337 0.3260 0.7016
vn -0.6336 0.3260 0.7016
vn -0.6338 0.3269 0.7010
vn -0.5769 0.2900 0.7636
vn -0.6306 0.2082 0.7476
vn -0.6306 0.2082 0.7477
vn -0.6726 0.2542 0.6950
vn -0.9193 0.3117 0.2402
vn -0.7925 -0.5758 0.2013
vn -0.8348 -0.2614 0.4845
vn -0.6534 -0.5453 0.5251
vn -0.4882 -0.8043 0.3387
vn -0.4883 -0.8043 0.3387
vn -0.5665 0.4852 -0.6660
vn -0.6337 0.3260 -0.7016
vn -0.6336 0.3260 -0.7016
vn -0.6335 0.3251 -0.7021
vn -0.5769 0.2900 -0.7636
vn -0.6306 0.2085 -0.7476
vn -0.6306 0.2082 -0.7476
vn -0.6726 0.2542 -0.6950
vn -0.8676 0.4972 0.0000
vn -0.8676 0.4973 0.0000
vn -0.9193 0.3117 -0.2402
vn -0.7925 -0.5758 -0.2013
vn -0.8348 -0.2614 -0.4845
vn -0.6534 -0.5453 -0.5251
vn -0.4883 -0.8043 -0.3387
vn -0.4882 -0.8043 -0.3387
vn -0.6660 -0.7459 0.0009
vn -0.6662 -0.7458 -0.0007
vn -0.6662 -0.7458 -0.0000
vn -0.6661 -0.7458 0.0008
vn -1.0000 0.0000 0.0000
vn -0.3721 -0.2870 0.8827
vn -0.3721 -0.2870 -0.8827
vn 0.0000 -1.0000 0.0000
vn 0.6335 0.3251 0.7021
vn 0.6306 0.2076 0.7478
vn 0.6338 0.3269 -0.7010
vn 0.8677 0.4970 0.0000
vn 0.4883 -0.8043 -0.3387
vn 0.6658 -0.7461 0.0000
vn -0.6335 0.3251 0.7021
vn -0.6306 0.2083 0.7477
vn -0.6338 0.3269 -0.7010
vn -0.6306 0.2088 -0.7475
vn -0.8677 0.4970 0.0000
vn -0.6659 -0.7461 0.0000
usemtl Material
s 1
f 1//1 2//1 3//1
f 5//2 3//3 4//4
f 4//5 3//5 6//5
f 6//6 8//7 4//7
f 9//7 4//7 8//7
f 9//8 5//8 4//8
f 1//9 5//9 10//9
f 11//10 12//10 13//10
f 8//11 13//11 9//11
f 8//12 11//12 13//12
f 11//13 15//13 16//14
f 17//15 18//15 2//15
f 19//16 18//17 17//18
f 20//19 21//19 18//19
f 22//20 21//20 20//20
f 24//20 22//20 20//20
f 24//21 20//21 19//21
f 1//22 17//22 2//23
f 17//24 10//24 19//24
f 25//25 26//25 12//25
f 22//26 24//26 26//26
f 22//27 25//27 27//27
f 25//28 29//28 27//28
f 11//29 28//30 12//31
f 25//32 12//31 28//30
f 19//33 5//33 24//33
f 12//33 24//33 13//33
f 9//33 24//33 5//33
f 14//34 8//34 7//34
f 23//35 22//35 27//35
f 30//36 3//36 2//36
f 3//37 32//38 31//39
f 31//40 6//40 3//40
f 33//41 6//42 31//41
f 34//41 33//41 31//41
f 34//43 31//43 32//43
f 30//44 35//44 32//44
f 36//45 37//45 38//45
f 33//46 34//46 37//46
f 36//47 33//47 37//47
f 15//48 36//48 39//49
f 40//50 2//50 18//50
f 18//51 42//52 40//53
f 41//54 18//54 21//54
f 21//55 43//56 41//56
f 44//56 41//56 43//56
f 44//57 42//57 41//57
f 40//58 30//58 2//59
f 40//60 42//60 35//60
f 45//61 38//61 46//61
f 43//62 46//62 44//62
f 45//63 43//63 27//63
f 29//64 45//65 27//65
f 47//66 36//67 38//68
f 45//69 47//66 38//68
f 38//70 44//70 46//70
f 44//70 34//70 32//70
f 42//70 32//70 35//70
f 14//71 7//71 33//71
f 23//72 27//72 43//72
f 47//73 28//73 39//73
f 39//73 16//73 15//73
f 5//2 1//74 3//3
f 6//6 7//75 8//7
f 8//12 14//12 11//12
f 11//13 14//13 15//13
f 19//16 20//76 18//17
f 22//20 23//20 21//20
f 1//22 10//77 17//22
f 22//27 26//27 25//27
f 25//28 28//78 29//28
f 11//29 16//79 28//30
f 19//33 10//33 5//33
f 12//33 26//33 24//33
f 9//33 13//33 24//33
f 3//37 30//80 32//38
f 33//41 7//81 6//42
f 36//47 14//47 33//47
f 15//48 14//48 36//48
f 18//51 41//82 42//52
f 21//55 23//83 43//56
f 40//58 35//84 30//58
f 45//63 46//63 43//63
f 29//64 47//64 45//65
f 47//66 39//85 36//67
f 38//70 37//70 44//70
f 44//70 37//70 34//70
f 42//70 44//70 32//70
f 47//73 29//73 28//73
f 39//73 28//73 16//73
