# Blender v2.78 (sub 0) OBJ File: 'new_plan2.blend'
# www.blender.org
mtllib Gem3.mtl
o Gem.001_Shape002.001
v 34.960484 10.611749 -5.758795
v 35.032875 10.912199 -5.931010
v 34.789623 10.578303 -5.931010
v 34.801418 10.382976 -5.817216
v 34.927059 10.449254 -5.712442
v 34.677940 10.284242 -5.931010
v 34.677441 10.282448 -5.931010
v 34.781185 10.170681 -5.771108
v 34.848236 10.233763 -5.712442
v 35.032875 10.530823 -5.712442
v 34.933575 10.007877 -5.784512
v 35.032875 10.072358 -5.712442
v 34.912643 10.114385 -5.712442
v 34.773758 9.986240 -5.931010
v 34.990501 9.894980 -5.931010
v 35.019321 9.894980 -5.911017
v 35.105267 10.611749 -5.758795
v 35.276127 10.578303 -5.931010
v 35.138691 10.449254 -5.712442
v 35.264332 10.382976 -5.817216
v 35.387810 10.284242 -5.931010
v 35.284565 10.170681 -5.771108
v 35.388309 10.282448 -5.931010
v 35.217514 10.233763 -5.712442
v 35.132175 10.007877 -5.784512
v 35.153107 10.114385 -5.712442
v 35.291992 9.986240 -5.931010
v 35.046429 9.894980 -5.911017
v 35.075249 9.894980 -5.931010
v 34.960484 10.611749 -6.103225
v 34.801418 10.382976 -6.044805
v 34.927059 10.449254 -6.149578
v 34.781185 10.170681 -6.090912
v 34.848236 10.233763 -6.149578
v 35.032875 10.530823 -6.149578
v 34.933575 10.007877 -6.077508
v 34.912643 10.114386 -6.149578
v 35.032875 10.072358 -6.149578
v 35.019321 9.894980 -5.951003
v 35.105267 10.611749 -6.103225
v 35.264332 10.382976 -6.044805
v 35.138691 10.449254 -6.149578
v 35.284565 10.170681 -6.090912
v 35.217514 10.233763 -6.149578
v 35.132175 10.007877 -6.077508
v 35.153107 10.114386 -6.149578
v 35.046429 9.894980 -5.951003
vn -0.6660 0.4852 0.5665
vn -0.7016 0.3260 0.6336
vn -0.7010 0.3269 0.6338
vn -0.7636 0.2900 0.5769
vn -0.7479 0.2073 0.6306
vn -0.7476 0.2082 0.6306
vn -0.6950 0.2542 0.6726
vn -0.2402 0.3117 0.9193
vn -0.2013 -0.5758 0.7925
vn -0.4845 -0.2614 0.8348
vn -0.5251 -0.5453 0.6534
vn -0.3387 -0.8043 0.4882
vn -0.3386 -0.8044 0.4882
vn -0.3386 -0.8044 0.4881
vn 0.6660 0.4852 0.5665
vn 0.7016 0.3260 0.6336
vn 0.7016 0.3261 0.6336
vn 0.7021 0.3251 0.6335
vn 0.7636 0.2900 0.5769
vn 0.7476 0.2082 0.6306
vn 0.7477 0.2086 0.6304
vn 0.6950 0.2542 0.6726
vn 0.0000 0.4972 0.8677
vn 0.0000 0.4973 0.8676
vn 0.2402 0.3117 0.9193
vn 0.2013 -0.5758 0.7925
vn 0.4845 -0.2614 0.8348
vn 0.5251 -0.5453 0.6534
vn 0.3387 -0.8043 0.4882
vn 0.3387 -0.8043 0.4883
vn 0.0007 -0.7458 0.6662
vn -0.0007 -0.7459 0.6660
vn 0.0000 -0.7458 0.6662
vn -0.0008 -0.7458 0.6661
vn 0.0000 0.0000 1.0000
vn -0.8827 -0.2870 0.3721
vn 0.8827 -0.2871 0.3721
vn -0.6660 0.4852 -0.5665
vn -0.7016 0.3260 -0.6336
vn -0.7010 0.3269 -0.6338
vn -0.7636 0.2900 -0.5769
vn -0.7476 0.2082 -0.6306
vn -0.7480 0.2073 -0.6305
vn -0.6950 0.2542 -0.6726
vn -0.2402 0.3117 -0.9193
vn -0.2013 -0.5757 -0.7925
vn -0.4845 -0.2614 -0.8348
vn -0.5251 -0.5453 -0.6534
vn -0.3386 -0.8044 -0.4882
vn -0.3387 -0.8043 -0.4882
vn -0.3386 -0.8044 -0.4881
vn 0.6660 0.4852 -0.5665
vn 0.7016 0.3260 -0.6336
vn 0.7021 0.3251 -0.6335
vn 0.7636 0.2900 -0.5769
vn 0.7477 0.2085 -0.6304
vn 0.7476 0.2082 -0.6306
vn 0.6950 0.2542 -0.6726
vn 0.0000 0.4972 -0.8677
vn 0.0000 0.4973 -0.8676
vn 0.2402 0.3117 -0.9193
vn 0.2013 -0.5757 -0.7925
vn 0.4845 -0.2614 -0.8348
vn 0.5251 -0.5453 -0.6534
vn 0.3387 -0.8043 -0.4882
vn -0.0009 -0.7459 -0.6660
vn 0.0007 -0.7458 -0.6662
vn 0.0000 -0.7458 -0.6662
vn -0.0008 -0.7458 -0.6661
vn -0.0000 0.0000 -1.0000
vn -0.8827 -0.2870 -0.3721
vn 0.8827 -0.2871 -0.3721
vn 0.0000 -1.0000 0.0000
vn -0.7021 0.3251 0.6335
vn -0.7481 0.2065 0.6306
vn -0.3387 -0.8043 0.4883
vn 0.7010 0.3269 0.6338
vn 0.7478 0.2089 0.6302
vn 0.0000 0.4970 0.8678
vn 0.3387 -0.8044 0.4882
vn 0.0000 -0.7460 0.6659
vn -0.7021 0.3251 -0.6335
vn -0.7482 0.2065 -0.6305
vn -0.3387 -0.8043 -0.4883
vn 0.7010 0.3269 -0.6338
vn 0.7478 0.2088 -0.6303
vn 0.0000 0.4970 -0.8678
vn 0.0000 -0.7460 -0.6659
usemtl Material.001
s 1
f 1//1 2//1 3//1
f 5//2 3//2 4//3
f 4//4 3//4 6//4
f 6//5 8//6 4//6
f 9//6 4//6 8//6
f 9//7 5//7 4//7
f 1//8 5//8 10//8
f 11//9 12//9 13//9
f 8//10 13//10 9//10
f 8//11 11//11 13//11
f 11//12 15//13 16//14
f 17//15 18//15 2//15
f 19//16 18//17 17//18
f 20//19 21//19 18//19
f 22//20 21//21 20//20
f 24//20 22//20 20//20
f 24//22 20//22 19//22
f 1//23 17//23 2//24
f 17//25 10//25 19//25
f 25//26 26//26 12//26
f 22//27 24//27 26//27
f 22//28 25//28 27//28
f 25//29 29//29 27//30
f 11//31 28//32 12//33
f 25//34 12//33 28//32
f 19//35 5//35 24//35
f 12//35 24//35 13//35
f 9//35 24//35 5//35
f 14//36 8//36 7//36
f 23//37 22//37 27//37
f 30//38 3//38 2//38
f 3//39 32//39 31//40
f 31//41 6//41 3//41
f 33//42 6//43 31//42
f 34//42 33//42 31//42
f 34//44 31//44 32//44
f 30//45 35//45 32//45
f 36//46 37//46 38//46
f 33//47 34//47 37//47
f 36//48 33//48 37//48
f 15//49 36//50 39//51
f 40//52 2//52 18//52
f 18//53 42//53 40//54
f 41//55 18//55 21//55
f 21//56 43//57 41//57
f 44//57 41//57 43//57
f 44//58 42//58 41//58
f 40//59 30//59 2//60
f 40//61 42//61 35//61
f 45//62 38//62 46//62
f 43//63 46//63 44//63
f 45//64 43//64 27//64
f 29//65 45//65 27//65
f 47//66 36//67 38//68
f 45//69 47//66 38//68
f 38//70 44//70 46//70
f 44//70 34//70 32//70
f 42//70 32//70 35//70
f 14//71 7//71 33//71
f 23//72 27//72 43//72
f 47//73 28//73 39//73
f 39//73 16//73 15//73
f 5//2 1//74 3//2
f 6//5 7//75 8//6
f 8//11 14//11 11//11
f 11//12 14//76 15//13
f 19//16 20//77 18//17
f 22//20 23//78 21//21
f 1//23 10//79 17//23
f 22//28 26//28 25//28
f 25//29 28//80 29//29
f 11//31 16//81 28//32
f 19//35 10//35 5//35
f 12//35 26//35 24//35
f 9//35 13//35 24//35
f 3//39 30//82 32//39
f 33//42 7//83 6//43
f 36//48 14//48 33//48
f 15//49 14//84 36//50
f 18//53 41//85 42//53
f 21//56 23//86 43//57
f 40//59 35//87 30//59
f 45//64 46//64 43//64
f 29//65 47//65 45//65
f 47//66 39//88 36//67
f 38//70 37//70 44//70
f 44//70 37//70 34//70
f 42//70 44//70 32//70
f 47//73 29//73 28//73
f 39//73 28//73 16//73
