# Blender v2.78 (sub 0) OBJ File: 'new_plan2.blend'
# www.blender.org
mtllib Gem4.mtl
o Gem.003_Shape002.003
v 42.859276 10.611749 1.056862
v 42.687061 10.912199 0.984471
v 42.687061 10.578303 1.227722
v 42.800854 10.382976 1.215928
v 42.905628 10.449254 1.090286
v 42.687061 10.284242 1.339407
v 42.687061 10.282448 1.339906
v 42.846962 10.170681 1.236160
v 42.905628 10.233763 1.169110
v 42.905628 10.530823 0.984471
v 42.833561 10.007877 1.083773
v 42.905628 10.072358 0.984471
v 42.905628 10.114385 1.104702
v 42.687061 9.986240 1.243589
v 42.687061 9.894980 1.026847
v 42.707054 9.894980 0.998023
v 42.859276 10.611749 0.912081
v 42.687061 10.578303 0.741221
v 42.905628 10.449254 0.878657
v 42.800854 10.382976 0.753014
v 42.687061 10.284242 0.629536
v 42.846962 10.170681 0.732783
v 42.687061 10.282448 0.629037
v 42.905628 10.233763 0.799833
v 42.833561 10.007877 0.885170
v 42.905628 10.114385 0.864241
v 42.687061 9.986240 0.725354
v 42.707054 9.894980 0.970919
v 42.687061 9.894980 0.942096
v 42.514847 10.611749 1.056862
v 42.573269 10.382976 1.215928
v 42.468494 10.449254 1.090286
v 42.527161 10.170681 1.236160
v 42.468494 10.233763 1.169110
v 42.468494 10.530823 0.984471
v 42.540562 10.007877 1.083773
v 42.468494 10.114386 1.104702
v 42.468494 10.072358 0.984471
v 42.667068 9.894980 0.998023
v 42.514847 10.611749 0.912081
v 42.573269 10.382976 0.753014
v 42.468494 10.449254 0.878657
v 42.527161 10.170681 0.732783
v 42.468494 10.233763 0.799833
v 42.540562 10.007877 0.885170
v 42.468494 10.114386 0.864241
v 42.667068 9.894980 0.970919
vn 0.5666 0.4852 0.6660
vn 0.6336 0.3260 0.7016
vn 0.6338 0.3269 0.7010
vn 0.5769 0.2900 0.7636
vn 0.6307 0.2086 0.7475
vn 0.6306 0.2082 0.7476
vn 0.6726 0.2542 0.6950
vn 0.9193 0.3117 0.2402
vn 0.7924 -0.5758 0.2013
vn 0.8348 -0.2614 0.4845
vn 0.6534 -0.5453 0.5251
vn 0.4882 -0.8043 0.3387
vn 0.5666 0.4852 -0.6660
vn 0.6336 0.3260 -0.7016
vn 0.6335 0.3251 -0.7021
vn 0.5769 0.2900 -0.7636
vn 0.6306 0.2082 -0.7476
vn 0.6307 0.2085 -0.7475
vn 0.6726 0.2542 -0.6950
vn 0.8676 0.4972 0.0000
vn 0.8676 0.4973 0.0000
vn 0.9193 0.3117 -0.2402
vn 0.7925 -0.5757 -0.2013
vn 0.8348 -0.2614 -0.4845
vn 0.6534 -0.5453 -0.5251
vn 0.4882 -0.8043 -0.3387
vn 0.6662 -0.7458 -0.0007
vn 0.6660 -0.7459 0.0007
vn 0.6662 -0.7458 -0.0000
vn 0.6661 -0.7458 0.0008
vn 1.0000 0.0000 0.0000
vn 1.0000 -0.0001 0.0000
vn 0.3721 -0.2870 0.8827
vn 0.3721 -0.2870 -0.8827
vn -0.5665 0.4852 0.6660
vn -0.6337 0.3260 0.7016
vn -0.6336 0.3260 0.7016
vn -0.6338 0.3269 0.7010
vn -0.5769 0.2900 0.7636
vn -0.6306 0.2082 0.7476
vn -0.6307 0.2086 0.7475
vn -0.6726 0.2542 0.6950
vn -0.9193 0.3117 0.2402
vn -0.7924 -0.5758 0.2013
vn -0.8348 -0.2614 0.4845
vn -0.6534 -0.5453 0.5251
vn -0.4882 -0.8043 0.3387
vn -0.4882 -0.8043 0.3386
vn -0.5665 0.4852 -0.6660
vn -0.6337 0.3260 -0.7016
vn -0.6336 0.3260 -0.7016
vn -0.6335 0.3251 -0.7021
vn -0.5769 0.2900 -0.7636
vn -0.6307 0.2086 -0.7475
vn -0.6306 0.2082 -0.7476
vn -0.6726 0.2542 -0.6950
vn -0.8676 0.4972 0.0000
vn -0.8676 0.4973 0.0000
vn -0.9193 0.3117 -0.2402
vn -0.7924 -0.5758 -0.2013
vn -0.8348 -0.2614 -0.4845
vn -0.6534 -0.5453 -0.5251
vn -0.4882 -0.8043 -0.3386
vn -0.4882 -0.8043 -0.3387
vn -0.6660 -0.7459 0.0009
vn -0.6662 -0.7458 -0.0007
vn -0.6662 -0.7458 -0.0000
vn -0.6662 -0.7458 0.0008
vn -1.0000 -0.0001 0.0000
vn -1.0000 -0.0000 0.0000
vn -0.3721 -0.2870 0.8827
vn -0.3721 -0.2870 -0.8827
vn 0.0000 -1.0000 0.0000
vn 0.6335 0.3251 0.7021
vn 0.6308 0.2089 0.7473
vn 0.6338 0.3269 -0.7010
vn 0.6308 0.2088 -0.7473
vn 0.8677 0.4970 0.0000
vn 0.6658 -0.7461 0.0000
vn -0.6335 0.3251 0.7021
vn -0.6308 0.2089 0.7473
vn -0.6338 0.3269 -0.7010
vn -0.6308 0.2089 -0.7473
vn -0.8677 0.4970 0.0000
vn -0.6658 -0.7461 0.0000
usemtl Material.002
s 1
f 1//1 2//1 3//1
f 5//2 3//2 4//3
f 4//4 3//4 6//4
f 6//5 8//6 4//6
f 9//6 4//6 8//6
f 9//7 5//7 4//7
f 1//8 5//8 10//8
f 11//9 12//9 13//9
f 8//10 13//10 9//10
f 8//11 11//11 13//11
f 11//12 15//12 16//12
f 17//13 18//13 2//13
f 19//14 18//14 17//15
f 20//16 21//16 18//16
f 22//17 21//18 20//17
f 24//17 22//17 20//17
f 24//19 20//19 19//19
f 1//20 17//20 2//21
f 17//22 10//22 19//22
f 25//23 26//23 12//23
f 22//24 24//24 26//24
f 22//25 25//25 27//25
f 25//26 29//26 27//26
f 11//27 28//28 12//29
f 25//30 12//29 28//28
f 19//31 5//31 24//31
f 12//32 24//31 13//31
f 9//31 24//31 5//31
f 14//33 8//33 7//33
f 23//34 22//34 27//34
f 30//35 3//35 2//35
f 3//36 32//37 31//38
f 31//39 6//39 3//39
f 33//40 6//41 31//40
f 34//40 33//40 31//40
f 34//42 31//42 32//42
f 30//43 35//43 32//43
f 36//44 37//44 38//44
f 33//45 34//45 37//45
f 36//46 33//46 37//46
f 15//47 36//47 39//48
f 40//49 2//49 18//49
f 18//50 42//51 40//52
f 41//53 18//53 21//53
f 21//54 43//55 41//55
f 44//55 41//55 43//55
f 44//56 42//56 41//56
f 40//57 30//57 2//58
f 40//59 42//59 35//59
f 45//60 38//60 46//60
f 43//61 46//61 44//61
f 45//62 43//62 27//62
f 29//63 45//64 27//64
f 47//65 36//66 38//67
f 45//68 47//65 38//67
f 38//69 44//70 46//70
f 44//70 34//70 32//70
f 42//70 32//70 35//70
f 14//71 7//71 33//71
f 23//72 27//72 43//72
f 47//73 28//73 39//73
f 39//73 16//73 15//73
f 5//2 1//74 3//2
f 6//5 7//75 8//6
f 8//11 14//11 11//11
f 11//12 14//12 15//12
f 19//14 20//76 18//14
f 22//17 23//77 21//18
f 1//20 10//78 17//20
f 22//25 26//25 25//25
f 25//26 28//26 29//26
f 11//27 16//79 28//28
f 19//31 10//31 5//31
f 12//32 26//31 24//31
f 9//31 13//31 24//31
f 3//36 30//80 32//37
f 33//40 7//81 6//41
f 36//46 14//46 33//46
f 15//47 14//47 36//47
f 18//50 41//82 42//51
f 21//54 23//83 43//55
f 40//57 35//84 30//57
f 45//62 46//62 43//62
f 29//63 47//63 45//64
f 47//65 39//85 36//66
f 38//69 37//70 44//70
f 44//70 37//70 34//70
f 42//70 44//70 32//70
f 47//73 29//73 28//73
f 39//73 28//73 16//73
