# Blender v2.78 (sub 0) OBJ File: 'new_plan2.blend'
# www.blender.org
mtllib light2.mtl.mtl
o Cube.001_Cube.017
v 9.536253 3.809084 3.813220
v 9.536253 4.457644 3.813220
v 9.536253 3.809084 3.164659
v 9.536253 4.457644 3.164659
v 10.184814 3.809084 3.813220
v 10.184814 4.457644 3.813220
v 10.184814 3.809084 3.164659
v 10.184814 4.457644 3.164659
vn -0.5773 0.5773 0.5773
vn -0.5773 -0.5773 -0.5773
vn -0.5773 -0.5773 0.5773
vn -0.5773 0.5773 -0.5773
vn 0.5773 -0.5773 -0.5773
vn 0.5773 0.5773 -0.5773
vn 0.5773 -0.5773 0.5773
vn 0.5773 0.5773 0.5773
usemtl None
s 1
f 2//1 3//2 1//3
f 4//4 7//5 3//2
f 8//6 5//7 7//5
f 6//8 1//3 5//7
f 7//5 1//3 3//2
f 4//4 6//8 8//6
f 2//1 4//4 3//2
f 4//4 8//6 7//5
f 8//6 6//8 5//7
f 6//8 2//1 1//3
f 7//5 5//7 1//3
f 4//4 2//1 6//8
