# Blender v2.78 (sub 0) OBJ File: 'new_plan2.blend'
# www.blender.org
mtllib light3.mtl
o Cone.001
v 8.725391 4.583441 5.167070
v 8.631961 4.583441 5.176272
v 8.542120 4.583442 5.203525
v 8.459323 4.583442 5.247781
v 8.386750 4.583442 5.307340
v 8.327191 4.583442 5.379912
v 8.282935 4.583442 5.462710
v 8.255682 4.583442 5.552550
v 8.246480 4.583442 5.645981
v 8.725391 3.625618 5.645981
v 8.255682 4.583442 5.739412
v 8.282935 4.583442 5.829253
v 8.327191 4.583442 5.912050
v 8.386750 4.583442 5.984623
v 8.459323 4.583442 6.044182
v 8.542120 4.583442 6.088438
v 8.631961 4.583441 6.115691
v 8.725391 4.583441 6.124893
v 8.818823 4.583441 6.115691
v 8.908663 4.583441 6.088438
v 8.991461 4.583441 6.044182
v 9.064034 4.583441 5.984623
v 9.123592 4.583441 5.912050
v 9.167849 4.583441 5.829252
v 9.195101 4.583441 5.739412
v 9.204303 4.583441 5.645981
v 9.195101 4.583441 5.552550
v 9.167848 4.583441 5.462709
v 9.123591 4.583441 5.379912
v 9.064033 4.583441 5.307339
v 8.991460 4.583441 5.247780
v 8.908663 4.583441 5.203525
v 8.818822 4.583441 5.176272
vn 0.0000 0.5033 -0.8641
vn 0.0000 -1.0000 0.0000
vn -0.1686 0.5033 -0.8475
vn -0.3307 0.5033 -0.7983
vn -0.4801 0.5033 -0.7185
vn -0.6110 0.5033 -0.6110
vn -0.7185 0.5033 -0.4801
vn -0.7983 0.5033 -0.3307
vn -0.8475 0.5033 -0.1686
vn -0.8641 0.5033 0.0000
vn -0.8475 0.5033 0.1686
vn -0.7983 0.5033 0.3307
vn -0.7185 0.5033 0.4801
vn -0.6110 0.5033 0.6110
vn -0.4801 0.5033 0.7185
vn -0.3307 0.5033 0.7983
vn -0.1686 0.5033 0.8475
vn 0.0000 0.5033 0.8641
vn 0.1686 0.5033 0.8475
vn 0.3307 0.5033 0.7983
vn 0.4801 0.5033 0.7185
vn 0.6110 0.5033 0.6110
vn 0.7185 0.5033 0.4801
vn 0.7983 0.5033 0.3307
vn 0.8475 0.5033 0.1686
vn 0.8641 0.5033 0.0000
vn 0.8475 0.5033 -0.1686
vn 0.7983 0.5033 -0.3307
vn 0.7185 0.5033 -0.4801
vn 0.6110 0.5033 -0.6110
vn 0.4801 0.5033 -0.7185
vn 0.3307 0.5033 -0.7983
vn 0.1686 0.5033 -0.8475
usemtl cone_light
s 1
f 1//1 10//2 2//3
f 2//3 10//2 3//4
f 3//4 10//2 4//5
f 4//5 10//2 5//6
f 5//6 10//2 6//7
f 6//7 10//2 7//8
f 7//8 10//2 8//9
f 8//9 10//2 9//10
f 9//10 10//2 11//11
f 11//11 10//2 12//12
f 12//12 10//2 13//13
f 13//13 10//2 14//14
f 14//14 10//2 15//15
f 15//15 10//2 16//16
f 16//16 10//2 17//17
f 17//17 10//2 18//18
f 18//18 10//2 19//19
f 19//19 10//2 20//20
f 20//20 10//2 21//21
f 21//21 10//2 22//22
f 22//22 10//2 23//23
f 23//23 10//2 24//24
f 24//24 10//2 25//25
f 25//25 10//2 26//26
f 26//26 10//2 27//27
f 27//27 10//2 28//28
f 28//28 10//2 29//29
f 29//29 10//2 30//30
f 30//30 10//2 31//31
f 31//31 10//2 32//32
f 32//32 10//2 33//33
f 33//33 10//2 1//1
f 17//17 25//25 33//33
f 33//33 1//1 4//5
f 2//3 3//4 4//5
f 4//5 5//6 6//7
f 6//7 7//8 8//9
f 8//9 9//10 11//11
f 11//11 12//12 8//9
f 13//13 14//14 17//17
f 15//15 16//16 17//17
f 17//17 18//18 21//21
f 19//19 20//20 21//21
f 21//21 22//22 25//25
f 23//23 24//24 25//25
f 25//25 26//26 27//27
f 27//27 28//28 25//25
f 29//29 30//30 33//33
f 31//31 32//32 33//33
f 1//1 2//3 4//5
f 4//5 6//7 33//33
f 8//9 12//12 13//13
f 14//14 15//15 17//17
f 18//18 19//19 21//21
f 22//22 23//23 25//25
f 25//25 28//28 29//29
f 30//30 31//31 33//33
f 33//33 6//7 8//9
f 8//9 13//13 33//33
f 17//17 21//21 25//25
f 25//25 29//29 33//33
f 33//33 13//13 17//17
