# Blender v2.78 (sub 0) OBJ File: 'new_plan.blend'
# www.blender.org
mtllib stairs.mtl
o step_Cube.070
v -5.000000 -1.000000 19.979773
v -5.000000 -0.500000 19.979773
v -5.000000 -1.000000 14.979773
v -5.000000 -0.500000 14.979773
v 5.000000 -1.000000 19.979773
v 5.000000 -0.500000 19.979773
v 5.000000 -1.000000 14.979773
v 5.000000 -0.500000 14.979773
v -5.000000 -1.000000 16.646439
v -5.000000 -1.000000 18.313107
v -5.000000 -0.500000 18.313107
v -5.000000 -0.500000 16.646439
v 5.000000 -1.000000 18.313107
v 5.000000 -1.000000 16.646439
v 5.000000 -0.500000 16.646439
v 5.000000 -0.500000 18.313107
v -5.000000 0.000000 18.313107
v -5.000000 0.000000 16.646439
v 5.000000 0.000000 16.646439
v 5.000000 0.000000 18.313107
v -5.000000 0.500000 16.646439
v -5.000000 0.500000 14.979773
v 5.000000 0.500000 14.979773
v 5.000000 0.500000 16.646439
vt 0.8064 0.5000
vt 0.9596 0.9596
vt 0.8064 0.9596
vt 0.5000 0.0404
vt 0.0404 -0.4192
vt 0.5000 -0.4192
vt -0.1128 0.5000
vt 0.0404 0.9596
vt -0.1128 0.9596
vt -1.3283 0.1555
vt 2.3283 0.8445
vt -1.3283 0.8445
vt 1.2660 0.5000
vt 1.4192 0.9596
vt 1.2660 0.9596
vt 0.9405 0.4425
vt 1.4384 1.9364
vt 0.9405 1.9364
vt 0.0404 0.9596
vt 0.0404 0.0404
vt 1.9215 0.7762
vt -0.9215 0.2238
vt -0.9215 0.7762
vt 0.9596 0.5000
vt 1.1128 0.9596
vt 1.1128 0.5000
vt -0.4192 0.5000
vt -0.2660 0.9596
vt -0.4192 0.9596
vt -0.2660 0.5000
vt 0.5000 0.5000
vt 0.6532 0.9596
vt 0.5000 0.9596
vt 0.6532 0.5000
vt 0.4425 0.4425
vt 0.9405 1.9364
vt 0.4425 1.9364
vt -0.1128 0.0404
vt 0.8064 0.0404
vt 0.9596 0.9596
vt 0.5000 1.4192
vt 0.5000 0.9596
vt 1.4384 0.4425
vt 1.9364 1.9364
vt 1.4384 1.9364
vt 0.9596 -0.4192
vt 0.9596 0.5000
vt -0.5674 0.7994
vt 1.5674 0.2006
vt 1.5674 0.7994
vt -0.2660 -0.4192
vt 0.0404 0.5000
vt 2.3283 0.1555
vt 1.4192 0.5000
vt 1.4384 0.4425
vt 0.5000 0.9596
vt 1.9215 0.2238
vt 0.9405 0.4425
vt -0.2660 0.0404
vt 0.6532 0.0404
vt 0.9596 1.4192
vt 1.9364 0.4425
vt 0.8064 -0.4192
vt -0.5674 0.2006
vt -0.4192 -0.4192
vn -1.0000 0.0000 0.0000
vn 0.0000 0.0000 -1.0000
vn 1.0000 0.0000 0.0000
vn 0.0000 0.0000 1.0000
vn 0.0000 -1.0000 0.0000
vn 0.0000 1.0000 0.0000
usemtl concrete
s off
f 12/1/1 3/2/1 9/3/1
f 4/4/2 7/5/2 3/6/2
f 16/7/3 5/8/3 13/9/3
f 6/10/4 1/11/4 5/12/4
f 13/13/5 1/14/5 10/15/5
f 11/16/6 6/17/6 16/18/6
f 4/4/2 23/19/2 8/20/2
f 16/21/4 17/22/4 11/23/4
f 7/24/5 9/25/5 3/2/5
f 14/26/5 10/15/5 9/25/5
f 8/27/3 14/28/3 7/29/3
f 15/30/3 13/9/3 14/28/3
f 2/31/1 10/32/1 1/33/1
f 11/34/1 9/3/1 10/32/1
f 18/35/6 20/36/6 19/37/6
f 15/30/3 20/38/3 16/7/3
f 11/34/1 18/39/1 12/1/1
f 12/40/2 19/41/2 15/42/2
f 22/43/6 24/44/6 23/45/6
f 12/1/1 22/46/1 4/47/1
f 15/48/4 21/49/4 12/50/4
f 8/27/3 24/51/3 15/30/3
f 12/1/1 4/47/1 3/2/1
f 4/4/2 8/20/2 7/5/2
f 16/7/3 6/52/3 5/8/3
f 6/10/4 2/53/4 1/11/4
f 13/13/5 5/54/5 1/14/5
f 11/16/6 2/55/6 6/17/6
f 4/4/2 22/56/2 23/19/2
f 16/21/4 20/57/4 17/22/4
f 7/24/5 14/26/5 9/25/5
f 14/26/5 13/13/5 10/15/5
f 8/27/3 15/30/3 14/28/3
f 15/30/3 16/7/3 13/9/3
f 2/31/1 11/34/1 10/32/1
f 11/34/1 12/1/1 9/3/1
f 18/35/6 17/58/6 20/36/6
f 15/30/3 19/59/3 20/38/3
f 11/34/1 17/60/1 18/39/1
f 12/40/2 18/61/2 19/41/2
f 22/43/6 21/62/6 24/44/6
f 12/1/1 21/63/1 22/46/1
f 15/48/4 24/64/4 21/49/4
f 8/27/3 23/65/3 24/51/3
