# Blender v2.78 (sub 0) OBJ File: 'new_plan2.blend'
# www.blender.org
mtllib wood_step.mtl
o Cube
v 32.000000 1.000000 -11.999998
v 32.000000 1.500000 -11.999998
v 32.000000 1.000000 -19.999998
v 32.000000 1.500000 -19.999998
v 43.000000 1.000000 -11.999998
v 43.000000 1.500000 -11.999998
v 43.000000 1.000000 -19.999998
v 43.000000 1.500000 -19.999998
v 32.000000 1.000000 -18.999998
v 32.000000 1.000000 -17.999998
v 32.000000 1.000000 -16.999998
v 32.000000 1.000000 -15.999998
v 32.000000 1.000000 -14.999998
v 32.000000 1.000000 -13.999998
v 32.000000 1.000000 -12.999998
v 32.000000 1.500000 -12.999998
v 32.000000 1.500000 -13.999998
v 32.000000 1.500000 -14.999998
v 32.000000 1.500000 -15.999998
v 32.000000 1.500000 -16.999998
v 32.000000 1.500000 -17.999998
v 32.000000 1.500000 -18.999998
v 43.000000 1.000000 -12.999998
v 43.000000 1.000000 -13.999998
v 43.000000 1.000000 -14.999998
v 43.000000 1.000000 -15.999998
v 43.000000 1.000000 -16.999998
v 43.000000 1.000000 -17.999998
v 43.000000 1.000000 -18.999998
v 43.000000 1.500000 -18.999998
v 43.000000 1.500000 -17.999998
v 43.000000 1.500000 -16.999998
v 43.000000 1.500000 -15.999998
v 43.000000 1.500000 -14.999998
v 43.000000 1.500000 -13.999998
v 43.000000 1.500000 -12.999998
v 32.000000 2.000000 -12.999998
v 32.000000 2.000000 -13.999998
v 43.000000 2.000000 -13.999998
v 43.000000 2.000000 -12.999998
v 32.000000 2.500000 -13.999998
v 32.000000 2.500000 -14.999998
v 43.000000 2.500000 -14.999998
v 43.000000 2.500000 -13.999998
v 32.000000 3.000000 -14.999998
v 32.000000 3.000000 -15.999998
v 43.000000 3.000000 -15.999998
v 43.000000 3.000000 -14.999998
v 32.000000 3.500000 -15.999998
v 32.000000 3.500000 -16.999998
v 43.000000 3.500000 -16.999998
v 43.000000 3.500000 -15.999998
v 32.000000 4.000000 -16.999998
v 32.000000 4.000000 -17.999998
v 43.000000 4.000000 -17.999998
v 43.000000 4.000000 -16.999998
v 32.000000 4.500000 -17.999998
v 32.000000 4.500000 -18.999998
v 43.000000 4.500000 -18.999998
v 43.000000 4.500000 -17.999998
v 32.000000 5.000000 -18.999998
v 32.000000 5.000000 -19.999998
v 43.000000 5.000000 -19.999998
v 43.000000 5.000000 -18.999998
vt 0.2083 0.7778
vt 0.4837 0.8889
vt 0.2083 0.8889
vt 0.1111 0.1111
vt 0.0000 0.0000
vt 0.1111 0.0000
vt 0.5349 0.1111
vt 0.2222 0.0000
vt 0.5349 0.0000
vt 0.5000 0.5714
vt 1.0327 0.7143
vt 0.5000 0.7143
vt 0.9861 0.4444
vt 1.0000 0.5556
vt 0.9861 0.5556
vt 1.1881 1.9344
vt 1.7447 -0.4899
vt 1.1881 -0.4899
vt 0.0000 0.8889
vt 0.0000 0.1111
vt 0.1944 0.7778
vt 0.4847 0.1111
vt 0.4847 0.7778
vt 0.7778 0.0000
vt 0.6667 0.5556
vt 0.6667 0.0000
vt 0.5830 0.1111
vt 0.2778 0.5556
vt 0.2778 0.1111
vt 0.8889 0.5556
vt 0.7778 0.8889
vt 0.7778 0.5556
vt 0.5328 0.1111
vt 0.2500 0.3333
vt 0.2500 0.1111
vt 0.1111 1.0000
vt 0.0000 0.8889
vt 0.1111 0.8889
vt 0.8889 0.4444
vt 0.9028 0.5556
vt 0.8889 0.5556
vt 0.9028 0.4444
vt 0.9167 0.5556
vt 0.9167 0.4444
vt 0.9306 0.5556
vt 0.9306 0.4444
vt 0.9444 0.5556
vt 0.9444 0.4444
vt 0.9583 0.5556
vt 0.9583 0.4444
vt 0.9722 0.5556
vt 0.9722 0.4444
vt 0.6060 0.1111
vt 0.3194 0.0000
vt 0.6060 0.0000
vt 0.6033 0.1111
vt 0.3056 0.0000
vt 0.6033 0.0000
vt 0.5633 0.1111
vt 0.2917 0.0000
vt 0.5633 0.0000
vt 0.5755 0.1111
vt 0.2778 0.0000
vt 0.5755 0.0000
vt 0.5392 0.1111
vt 0.2639 0.0000
vt 0.5392 0.0000
vt 0.5365 0.1111
vt 0.2500 0.0000
vt 0.5365 0.0000
vt 0.5227 0.1111
vt 0.2361 0.0000
vt 0.5227 0.0000
vt 0.1111 0.7778
vt 0.3678 0.8889
vt 0.1111 0.8889
vt 0.1250 0.7778
vt 0.3854 0.8889
vt 0.1250 0.8889
vt 0.1389 0.7778
vt 0.3918 0.8889
vt 0.1389 0.8889
vt 0.1528 0.7778
vt 0.4132 0.8889
vt 0.1528 0.8889
vt 0.1667 0.7778
vt 0.3860 0.8889
vt 0.1667 0.8889
vt 0.1806 0.7778
vt 0.4484 0.8889
vt 0.1806 0.8889
vt 0.4399 0.8889
vt 0.1944 0.8889
vt 0.6314 -0.4899
vt 1.1881 -2.9142
vt 0.6314 -2.9142
vt 0.5600 0.1111
vt 0.2361 0.2222
vt 0.2361 0.1111
vt 0.8333 0.1429
vt 1.2278 0.0000
vt 1.2278 0.1429
vt 0.3742 0.6667
vt 0.3742 0.7778
vt 1.1881 4.3586
vt 1.7447 1.9344
vt 1.1881 1.9344
vt 0.6667 0.7143
vt 1.1695 0.4286
vt 1.1695 0.7143
vt 0.4217 0.5556
vt 0.4217 0.7778
vt 0.6667 0.6667
vt 0.5556 0.8889
vt 0.5556 0.6667
vt 1.1881 1.9344
vt 0.6314 4.3586
vt 1.1881 4.3586
vt 0.5990 0.1111
vt 0.2639 0.4444
vt 0.2639 0.1111
vt 0.5551 0.4444
vt 0.5551 0.7778
vt 0.6667 0.4286
vt 1.2479 0.0000
vt 1.2479 0.4286
vt 0.6314 -2.9142
vt 0.0747 -0.4899
vt 0.6314 -0.4899
vt 0.4121 0.3333
vt 0.4121 0.7778
vt 0.5000 0.5714
vt 1.0738 0.0000
vt 1.0738 0.5714
vt 1.0000 0.0000
vt 0.8889 0.4444
vt 0.8889 0.0000
vt 0.6314 1.9344
vt 0.0747 4.3586
vt 0.6314 4.3586
vt 0.5530 0.2222
vt 0.5530 0.7778
vt 0.6454 0.1111
vt 0.2917 0.6667
vt 0.2917 0.1111
vt 0.3333 0.7143
vt 0.8922 0.0000
vt 0.8922 0.7143
vt 0.6314 -0.4899
vt 0.0747 1.9344
vt 0.6314 1.9344
vt 0.6892 0.1111
vt 0.3056 0.7778
vt 0.3056 0.1111
vt 0.1667 0.8571
vt 0.9272 0.0000
vt 0.9272 0.8571
vt 0.5556 0.0000
vt 0.4444 0.6667
vt 0.4444 0.0000
vt 1.1881 -0.4899
vt 0.6314 1.9344
vt 1.1881 1.9344
vt 0.5995 0.0000
vt 0.5995 0.7778
vt 0.6695 0.1111
vt 0.3194 0.8889
vt 0.3194 0.1111
vt 0.0000 1.0000
vt 0.7307 0.0000
vt 0.7307 1.0000
vt 0.4837 0.7778
vt 0.2222 0.1111
vt 1.0327 0.5714
vt 1.0000 0.4444
vt 1.7447 1.9344
vt 0.1111 0.8889
vt 0.1944 0.1111
vt 0.7778 0.5556
vt 0.5830 0.5556
vt 0.8889 0.8889
vt 0.5328 0.3333
vt 0.0000 1.0000
vt 0.3678 0.7778
vt 0.3854 0.7778
vt 0.3918 0.7778
vt 0.4132 0.7778
vt 0.3860 0.7778
vt 0.4484 0.7778
vt 0.4399 0.7778
vt 1.1881 -0.4899
vt 0.5600 0.2222
vt 0.8333 0.0000
vt 0.1250 0.6667
vt 1.7447 4.3586
vt 0.6667 0.4286
vt 0.1389 0.5556
vt 0.6667 0.8889
vt 0.6314 1.9344
vt 0.5990 0.4444
vt 0.1528 0.4444
vt 0.6667 0.0000
vt 0.0747 -2.9142
vt 0.1667 0.3333
vt 0.5000 0.0000
vt 1.0000 0.4444
vt 0.0747 1.9344
vt 0.1806 0.2222
vt 0.6454 0.6667
vt 0.3333 0.0000
vt 0.0747 -0.4899
vt 0.6892 0.7778
vt 0.1667 0.0000
vt 0.5556 0.6667
vt 0.6314 -0.4899
vt 0.2083 0.0000
vt 0.6695 0.8889
vt 0.0000 0.0000
vn -1.0000 0.0000 0.0000
vn 0.0000 0.0000 -1.0000
vn 1.0000 0.0000 0.0000
vn 0.0000 0.0000 1.0000
vn 0.0000 -1.0000 0.0000
vn 0.0000 1.0000 0.0000
usemtl inner_step
s off
f 22/1/1 3/2/1 9/3/1
f 4/4/2 7/5/2 3/6/2
f 36/7/3 5/8/3 23/9/3
f 6/10/4 1/11/4 5/12/4
f 23/13/5 1/14/5 15/15/5
f 16/16/6 6/17/6 36/18/6
f 4/4/2 63/19/2 8/20/2
f 21/21/1 58/22/1 22/23/1
f 21/24/2 55/25/2 31/26/2
f 32/27/3 52/28/3 33/29/3
f 19/30/2 47/31/2 33/32/2
f 34/33/3 44/34/3 35/35/3
f 17/36/2 39/37/2 35/38/2
f 7/39/5 9/40/5 3/41/5
f 29/42/5 10/43/5 9/40/5
f 28/44/5 11/45/5 10/43/5
f 27/46/5 12/47/5 11/45/5
f 26/48/5 13/49/5 12/47/5
f 25/50/5 14/51/5 13/49/5
f 24/52/5 15/15/5 14/51/5
f 8/53/3 29/54/3 7/55/3
f 30/56/3 28/57/3 29/58/3
f 31/59/3 27/60/3 28/61/3
f 32/62/3 26/63/3 27/64/3
f 33/65/3 25/66/3 26/67/3
f 34/68/3 24/69/3 25/70/3
f 35/71/3 23/72/3 24/73/3
f 2/74/1 15/75/1 1/76/1
f 16/77/1 14/78/1 15/79/1
f 17/80/1 13/81/1 14/82/1
f 18/83/1 12/84/1 13/85/1
f 19/86/1 11/87/1 12/88/1
f 20/89/1 10/90/1 11/91/1
f 21/21/1 9/92/1 10/93/1
f 38/94/6 40/95/6 39/96/6
f 35/97/3 40/98/3 36/99/3
f 36/100/4 37/101/4 16/102/4
f 16/77/1 38/103/1 17/104/1
f 42/105/6 44/106/6 43/107/6
f 35/108/4 41/109/4 17/110/4
f 17/80/1 42/111/1 18/112/1
f 18/113/2 43/114/2 34/115/2
f 46/116/6 48/117/6 47/118/6
f 33/119/3 48/120/3 34/121/3
f 18/83/1 46/122/1 19/123/1
f 34/124/4 45/125/4 18/126/4
f 50/127/6 52/128/6 51/129/6
f 19/86/1 50/130/1 20/131/1
f 33/132/4 49/133/4 19/134/4
f 20/135/2 51/136/2 32/137/2
f 54/138/6 56/139/6 55/140/6
f 20/89/1 54/141/1 21/142/1
f 31/143/3 56/144/3 32/145/3
f 32/146/4 53/147/4 20/148/4
f 58/149/6 60/150/6 59/151/6
f 30/152/3 60/153/3 31/154/3
f 31/155/4 57/156/4 21/157/4
f 22/158/2 59/159/2 30/160/2
f 62/161/6 64/162/6 63/163/6
f 22/1/1 62/164/1 4/165/1
f 8/166/3 64/167/3 30/168/3
f 30/169/4 61/170/4 22/171/4
f 22/1/1 4/172/1 3/2/1
f 4/4/2 8/20/2 7/5/2
f 36/7/3 6/173/3 5/8/3
f 6/10/4 2/174/4 1/11/4
f 23/13/5 5/175/5 1/14/5
f 16/16/6 2/176/6 6/17/6
f 4/4/2 62/177/2 63/19/2
f 21/21/1 57/178/1 58/22/1
f 21/24/2 54/179/2 55/25/2
f 32/27/3 51/180/3 52/28/3
f 19/30/2 46/181/2 47/31/2
f 34/33/3 43/182/3 44/34/3
f 17/36/2 38/183/2 39/37/2
f 7/39/5 29/42/5 9/40/5
f 29/42/5 28/44/5 10/43/5
f 28/44/5 27/46/5 11/45/5
f 27/46/5 26/48/5 12/47/5
f 26/48/5 25/50/5 13/49/5
f 25/50/5 24/52/5 14/51/5
f 24/52/5 23/13/5 15/15/5
f 8/53/3 30/168/3 29/54/3
f 30/56/3 31/154/3 28/57/3
f 31/59/3 32/145/3 27/60/3
f 32/62/3 33/29/3 26/63/3
f 33/65/3 34/121/3 25/66/3
f 34/68/3 35/35/3 24/69/3
f 35/71/3 36/99/3 23/72/3
f 2/74/1 16/184/1 15/75/1
f 16/77/1 17/185/1 14/78/1
f 17/80/1 18/186/1 13/81/1
f 18/83/1 19/187/1 12/84/1
f 19/86/1 20/188/1 11/87/1
f 20/89/1 21/189/1 10/90/1
f 21/21/1 22/190/1 9/92/1
f 38/94/6 37/191/6 40/95/6
f 35/97/3 39/192/3 40/98/3
f 36/100/4 40/193/4 37/101/4
f 16/77/1 37/194/1 38/103/1
f 42/105/6 41/195/6 44/106/6
f 35/108/4 44/196/4 41/109/4
f 17/80/1 41/197/1 42/111/1
f 18/113/2 42/198/2 43/114/2
f 46/116/6 45/199/6 48/117/6
f 33/119/3 47/200/3 48/120/3
f 18/83/1 45/201/1 46/122/1
f 34/124/4 48/202/4 45/125/4
f 50/127/6 49/203/6 52/128/6
f 19/86/1 49/204/1 50/130/1
f 33/132/4 52/205/4 49/133/4
f 20/135/2 50/206/2 51/136/2
f 54/138/6 53/207/6 56/139/6
f 20/89/1 53/208/1 54/141/1
f 31/143/3 55/209/3 56/144/3
f 32/146/4 56/210/4 53/147/4
f 58/149/6 57/211/6 60/150/6
f 30/152/3 59/212/3 60/153/3
f 31/155/4 60/213/4 57/156/4
f 22/158/2 58/214/2 59/159/2
f 62/161/6 61/215/6 64/162/6
f 22/1/1 61/216/1 62/164/1
f 8/166/3 63/217/3 64/167/3
f 30/169/4 64/218/4 61/170/4
